<?xml version="1.0" encoding="utf-8"?>
<!-- Generator: Adobe Illustrator 24.0.1, SVG Export Plug-In . SVG Version: 6.00 Build 0)  -->
<svg version="1.1" id="Layer_1" xmlns="http://www.w3.org/2000/svg" xmlns:xlink="http://www.w3.org/1999/xlink" x="0px" y="0px"
	 viewBox="0 0 365 302.3" style="enable-background:new 0 0 365 302.3;" xml:space="preserve">
<style type="text/css">
	.st0{fill:#249A10;}
	.st1{fill:#3A3A3A;}
	.st2{fill:#F1C53C;}
</style>
<title>digcit_curr_intro_graphic-bilingual-coming-soon</title>
<path class="st0" d="M310.4,98.8l0.4,0.2c1.1,0.4,2.3-0.1,2.8-1.2c0.4-1.1-0.1-2.3-1.2-2.8l-0.4-0.2c-1.1-0.4-2.3,0.1-2.8,1.2
	C308.8,97.2,309.3,98.4,310.4,98.8z"/>
<path class="st0" d="M215,18.9c-0.2-6.1,0.7-15-6.8-17c-3.6-1-7.5-1.1-11.1-1.3c-4.3-0.3-8.7-0.5-13-0.5c-8.9-0.1-17.7,0.3-26.5,1.2
	c-0.9,0.1-1.4,1.2-1.4,2.2c-0.2,0.3-0.3,0.7-0.3,1.1c-0.4,14.1-0.1,28.2-0.1,42.3c0,0.8,0.4,2,1.4,2c19.1,0,38.2-1.1,57.3-1.7
	c1.1,0,1.5-1.4,1.5-2.3h0.1C215.8,36.2,215.3,27.6,215,18.9z M204,5.9c3.4,0.3,7.3,0.8,8.1,4.6c0.7,3.5,0.4,7.4,0.5,11
	c0,3.3,0.1,6.6,0.1,10c-0.2-0.1-0.3-0.2-0.5-0.2c-4.4-0.4-8.8,0.1-13.2,0.3l-13.2,0.6c-8.8,0.4-17.6,0.6-26.3,1.4
	c-0.4,0-0.7,0.3-0.9,0.6c0.1-9.5,0.1-19-0.2-28.5C173.5,4.5,188.8,4.5,204,5.9z M158.5,44.7v-7.9l0,0c0.2,0.4,0.6,0.6,1,0.6
	c8.8-0.1,17.6-0.6,26.3-1.1l12.7-0.6c4.5-0.2,9.2-0.1,13.7-0.9c0.2,0,0.4-0.1,0.5-0.2l0.2,7.9C194.8,43.3,176.6,43.6,158.5,44.7z"/>
<path class="st0" d="M180.4,25.4L180.4,25.4c0.4,1.3,1.7,1.7,2.3,0.7c0.1,0,0.3,0,0.4-0.1c1.5-0.8,3-1.8,4.3-2.9l4.5-3.5
	c1.3-1,0.8-3.6-0.5-4.2c-3-1.9-6.1-3.6-9.3-5.1c-0.7-0.3-1.2,0.1-1.4,0.8c-0.7,0.4-1.2,1.1-1.1,1.9c0,2.1,0.2,4.3,0.3,6.4
	C179.8,21.5,180,23.5,180.4,25.4z M182.6,14.9L182.6,14.9c1.5,1,3,2,4.5,2.9c-1.4,0.9-2.8,2-4,3.1C183,18.9,182.8,16.8,182.6,14.9
	L182.6,14.9L182.6,14.9z"/>
<path class="st0" d="M182.6,14.9L182.6,14.9L182.6,14.9L182.6,14.9z"/>
<path class="st1" d="M161.5,65h1.3c0.1,0,0.3,0,0.4,0.1c0.1,0.1,0.2,0.2,0.2,0.3l3.5,8.6c0.1,0.2,0.2,0.4,0.2,0.6s0.1,0.5,0.2,0.7
	c0-0.2,0.1-0.5,0.2-0.7c0-0.2,0.1-0.4,0.2-0.6l3.4-8.6c0-0.1,0.1-0.2,0.2-0.3c0.1-0.1,0.2-0.1,0.4-0.1h1.3l-5,12.2h-1.5L161.5,65z"
	/>
<polygon class="st1" points="174.4,77.2 176,77.2 176,68.6 174.5,68.6 "/>
<path class="st1" d="M176.3,66c0,0.1,0,0.3-0.1,0.4c0,0.1-0.1,0.2-0.2,0.3c-0.1,0.1-0.2,0.2-0.3,0.2c-0.1,0.1-0.3,0.1-0.4,0.1
	c-0.1,0-0.3,0-0.4-0.1c-0.1-0.1-0.2-0.1-0.3-0.2s-0.2-0.2-0.2-0.3c-0.1-0.1-0.1-0.3-0.1-0.4c0-0.3,0.1-0.6,0.3-0.8
	c0.1-0.1,0.2-0.2,0.3-0.2c0.1-0.1,0.3-0.1,0.4-0.1c0.1,0,0.3,0,0.4,0.1c0.1,0.1,0.2,0.1,0.3,0.2s0.2,0.2,0.2,0.3
	C176.3,65.7,176.3,65.8,176.3,66z"/>
<path class="st1" d="M184.1,64.7v4.8c-0.3-0.3-0.6-0.6-1-0.8c-0.4-0.2-0.9-0.3-1.3-0.3c-1.1,0-2.1,0.4-2.7,1.3
	c-0.3,0.4-0.6,0.9-0.7,1.4c-0.2,0.6-0.3,1.2-0.3,1.8c0,0.7,0.1,1.3,0.2,1.9c0.1,0.5,0.3,1,0.6,1.4s0.6,0.7,1,0.9
	c0.4,0.2,0.9,0.2,1.3,0.3c0.6,0,1.1-0.1,1.7-0.4c0.5-0.3,0.9-0.6,1.3-1l0.2,1c0,0.2,0.2,0.3,0.4,0.3l0,0h0.9V64.7H184.1z M184,74.9
	c-0.3,0.4-0.6,0.7-1,1c-0.4,0.2-0.8,0.3-1.3,0.3l0,0c-0.3,0-0.7,0-1-0.1s-0.5-0.3-0.7-0.6c-0.2-0.3-0.4-0.6-0.4-1
	c-0.1-0.5-0.2-0.9-0.2-1.4c-0.1-0.9,0.2-1.7,0.6-2.5c0.4-0.6,1.1-0.9,1.9-0.8c0.4,0,0.8,0.1,1.1,0.2c0.4,0.2,0.7,0.5,0.9,0.8
	L184,74.9L184,74.9z"/>
<path class="st1" d="M194.9,70.8c-0.2-0.5-0.4-0.9-0.7-1.2c-0.3-0.3-0.7-0.6-1.1-0.7c-0.5-0.2-0.9-0.3-1.4-0.3v-0.1
	c-0.6,0-1.2,0.1-1.8,0.3c-0.5,0.2-0.9,0.5-1.3,0.9c-0.4,0.4-0.6,0.9-0.8,1.4c-0.2,0.6-0.3,1.1-0.3,1.7c0,0.7,0.1,1.4,0.3,2
	c0.2,0.5,0.5,1,0.9,1.4s0.8,0.7,1.3,0.9c0.5,0.2,1.1,0.3,1.7,0.3c0.3,0,0.7,0,1,0s0.6-0.1,0.9-0.2c0.3-0.1,0.6-0.3,0.9-0.4
	c0.3-0.2,0.5-0.4,0.7-0.6l-0.4-0.5c-0.1-0.1-0.2-0.2-0.3-0.2s-0.2,0-0.3,0.1c-0.1,0-0.3,0.2-0.5,0.3c-0.2,0.1-0.4,0.2-0.7,0.3
	c-0.3,0.1-0.7,0.1-1,0.1c-0.4,0-0.8-0.1-1.1-0.2s-0.6-0.3-0.9-0.6c-0.2-0.3-0.4-0.6-0.5-1c-0.2-0.5-0.2-1-0.2-1.4h5.8l0,0
	c0.1,0,0.2,0,0.2-0.1c0-0.2,0-0.3,0-0.5C195.1,71.8,195,71.3,194.9,70.8z M189.1,72.1c0.1-0.7,0.3-1.3,0.8-1.8
	c0.5-0.4,1.1-0.7,1.7-0.6l0,0c0.3,0,0.6,0.1,0.9,0.2c0.5,0.2,1,0.7,1.1,1.2c0.1,0.3,0.2,0.7,0.2,1C193.8,72.1,189.1,72.1,189.1,72.1
	z"/>
<path class="st1" d="M204.3,71.1c-0.2-0.5-0.4-1-0.8-1.4c-0.3-0.4-0.8-0.7-1.3-0.9c-0.5-0.2-1.1-0.3-1.7-0.3c-0.6,0-1.2,0.1-1.7,0.3
	c-0.5,0.2-0.9,0.5-1.3,0.9c-0.4,0.4-0.6,0.9-0.8,1.4c-0.4,1.2-0.4,2.5,0,3.7c0.2,0.5,0.4,1,0.8,1.4c0.3,0.4,0.8,0.7,1.3,0.9
	c1.1,0.4,2.3,0.4,3.4,0c0.5-0.2,0.9-0.5,1.3-0.9c0.4-0.4,0.6-0.9,0.8-1.4C204.7,73.6,204.7,72.3,204.3,71.1z M202.5,75.3
	c-0.5,0.6-1.2,0.9-1.9,0.9v0.1c-0.4,0-0.8-0.1-1.1-0.2c-0.3-0.2-0.6-0.4-0.8-0.6c-0.2-0.3-0.4-0.6-0.5-1c-0.1-0.5-0.2-0.9-0.2-1.4
	s0-1,0.2-1.5c0.1-0.4,0.3-0.7,0.5-1s0.5-0.5,0.8-0.6c0.4-0.1,0.7-0.2,1.1-0.2c0.7-0.1,1.5,0.3,1.9,0.8
	C203.3,72,203.3,73.8,202.5,75.3z"/>
<path class="st1" d="M211.5,70.1c-0.1,0.1-0.2,0.2-0.3,0.2s-0.2,0-0.3-0.1s-0.3-0.2-0.4-0.2c-0.2-0.1-0.3-0.2-0.5-0.2
	c-0.2-0.1-0.5-0.1-0.8-0.1c-0.2,0-0.5,0-0.7,0.1s-0.3,0.1-0.5,0.2c-0.1,0.1-0.3,0.3-0.3,0.4c-0.1,0.2-0.1,0.3-0.1,0.5
	s0.1,0.4,0.2,0.5c0.2,0.2,0.3,0.3,0.5,0.4s0.4,0.2,0.7,0.3l0.8,0.3l0.8,0.3c0.2,0.1,0.5,0.3,0.7,0.4c0.2,0.2,0.4,0.4,0.5,0.6
	c0.1,0.3,0.2,0.6,0.2,0.9c0,0.4-0.1,0.8-0.2,1.1c-0.1,0.3-0.4,0.6-0.6,0.8c-0.3,0.3-0.6,0.5-1,0.6c-0.4,0.2-0.9,0.2-1.4,0.2
	c-0.6,0-1.1-0.1-1.6-0.3c-0.5-0.1-0.9-0.4-1.2-0.7l0.4-0.6l0.2-0.2c0.1,0,0.2,0,0.3,0s0.2,0,0.3,0.1l0.4,0.3
	c0.2,0.1,0.4,0.2,0.6,0.3c0.3,0.1,0.6,0.1,0.9,0.1c0.3,0,0.5,0,0.8-0.1c0.2-0.1,0.4-0.2,0.5-0.3c0.2-0.1,0.3-0.3,0.3-0.5
	c0.1-0.2,0.1-0.3,0.1-0.5s-0.1-0.4-0.2-0.6c-0.2-0.2-0.3-0.3-0.5-0.4s-0.5-0.2-0.7-0.3l-0.8-0.3l-0.8-0.3c-0.3-0.1-0.5-0.3-0.7-0.4
	c-0.2-0.2-0.4-0.4-0.5-0.6c-0.1-0.3-0.2-0.7-0.2-1s0.1-0.7,0.2-1c0.1-0.3,0.3-0.6,0.6-0.8c0.3-0.2,0.6-0.4,1-0.5s0.9-0.2,1.3-0.2
	c0.5,0,1,0.1,1.5,0.3c0.4,0.2,0.8,0.4,1.2,0.7L211.5,70.1L211.5,70.1z"/>
<g>
	<path class="st0" d="M75.3,122.8c-0.8-11.3-1.7-22-2.5-33.3c-0.1-0.8-0.6-1.9-1.6-1.9c-9.1,0.2-18.3,0.4-27.5,0.7
		c-4.6,0.1-9.2,0.3-13.7,0.4c-4.3,0.1-8.9-0.2-13.1,0.7c-2,0.5-1.7,4-0.2,4.7c-0.4,5.4-0.5,10.9-0.7,16.3
		c-0.2,5.7-0.5,10.8-0.5,16.5c0,2.7,2.4,3.1,3.1,1c7.7,0.3,15.4,0.2,23.1-0.4v0.1c-1.3,1.1-2.1,3.3-2.8,4.7c-1.4,2.2-2.5,4.6-3.4,7
		c-0.4,1.4,0.8,3.9,2.3,2.1c1.5-1.9,2.4-4.3,3.5-6.3s2.3-4,2.5-6.2c0.1-0.1,0.2-0.2,0.3-0.4c0.3-0.3,0.5-0.8,0.6-1.2h0.6l2.4-0.1
		c-0.1,4.5,0.1,9,0.3,13.5c0,1,0.8,2.1,2,1.7c1.2-0.4,1.4-2.2,1.4-3.1c-0.2-4-0.3-8.1-0.6-12.2l5.1-0.2c-0.4,0.8-0.5,1.7-0.3,2.5
		c1.6,4,3.6,7.9,5.6,11.8c0.5,1.1,1.8,0.8,2.5-0.1c0.8-1.1,0.9-2.6,0.2-3.8c-1.7-3.5-3.4-7.2-5.3-10.5l15-0.6
		C75.1,126.1,75.4,123.9,75.3,122.8z M45.7,122.2c-8.8,0.4-17.8,0.4-26.6,1.5c0.2-4.8,0.2-9,0.3-13.8c0.1-5.1,0.4-10.2,0.3-15.3
		c3.6,0.2,7.5-0.3,11.1-0.4l0,0c4.4-0.1,8.8-0.3,13.2-0.4c8.5-0.3,17-0.5,25.6-0.8c0.7,9.5,1.5,18.6,2.2,28.2L45.7,122.2z"/>
	<polygon class="st1" points="1.6,165.8 6.9,165.8 6.9,167.2 0,167.2 0,155 1.6,155 	"/>
	<path class="st1" d="M15.1,162.8c0.1-0.2,0.1-0.3,0.1-0.5c0-0.6-0.1-1.1-0.3-1.7c-0.2-0.5-0.4-0.9-0.7-1.2s-0.7-0.6-1.1-0.8
		c-0.5-0.2-0.9-0.2-1.4-0.3l0,0c-0.6,0-1.2,0.2-1.7,0.5c-0.5,0.2-0.9,0.5-1.3,0.8c-0.4,0.4-0.6,0.8-0.8,1.3
		c-0.2,0.6-0.3,1.1-0.3,1.7c0,0.7,0.1,1.4,0.3,2c0.2,0.5,0.5,1,0.9,1.4c0.3,0.4,0.8,0.7,1.3,0.9s1.1,0.3,1.7,0.3c0.3,0,0.7,0,1-0.1
		s0.6-0.1,0.9-0.3c0.3-0.1,0.6-0.3,0.8-0.4c0.3-0.1,0.5-0.4,0.7-0.6l-0.4-0.5c-0.1-0.1-0.2-0.2-0.3-0.2s-0.3,0-0.4,0.1
		c-0.2,0.1-0.3,0.2-0.5,0.3s-0.4,0.2-0.7,0.3s-0.7,0.1-1,0.1c-0.4,0-0.8-0.1-1.1-0.2c-0.3-0.1-0.6-0.3-0.8-0.6
		c-0.3-0.3-0.5-0.6-0.6-1c-0.1-0.5-0.2-1-0.2-1.4H15C15,162.9,15.1,162.9,15.1,162.8z M9.1,162c0.1-0.7,0.4-1.3,0.8-1.8
		c0.4-0.5,1.1-0.7,1.7-0.6l0,0c0.3,0,0.6,0,0.9,0.2c0.3,0.1,0.5,0.3,0.7,0.5s0.3,0.5,0.4,0.7c0.1,0.3,0.2,0.7,0.2,1L9.1,162L9.1,162
		z"/>
	<path class="st1" d="M22.1,160c-0.1,0.1-0.2,0.2-0.3,0.2c-0.1,0-0.2,0-0.3-0.1l-0.4-0.2c-0.2-0.1-0.4-0.2-0.5-0.2
		c-0.2-0.1-0.5-0.1-0.7-0.1s-0.5,0-0.7,0.1s-0.4,0.2-0.5,0.3s-0.3,0.2-0.3,0.4c-0.1,0.2-0.1,0.3-0.1,0.5s0.1,0.4,0.2,0.5
		c0.1,0.2,0.3,0.3,0.5,0.4c0.2,0.1,0.5,0.2,0.7,0.3c0.3,0.1,0.5,0.2,0.8,0.3l0.8,0.3c0.2,0.1,0.5,0.2,0.7,0.4s0.4,0.4,0.5,0.6
		c0.1,0.3,0.2,0.6,0.2,0.9c0,0.4-0.1,0.8-0.2,1.1c-0.2,0.3-0.4,0.6-0.6,0.9c-0.3,0.3-0.6,0.5-1,0.6c-0.4,0.2-0.9,0.2-1.4,0.2
		c-0.6,0-1.1-0.1-1.6-0.3s-0.9-0.4-1.2-0.8l0.4-0.6l0.2-0.2c0-0.1,0.2-0.1,0.3-0.1c0.1,0,0.2,0,0.3,0.1l0.4,0.3
		c0.2,0.1,0.4,0.2,0.6,0.3c0.3,0.1,0.6,0.1,0.9,0.1s0.5,0,0.8-0.1c0.2-0.1,0.4-0.2,0.5-0.3c0.2-0.1,0.3-0.3,0.3-0.5
		c0.1-0.2,0.1-0.4,0.1-0.5c0-0.2-0.1-0.4-0.2-0.6c-0.2-0.2-0.3-0.3-0.5-0.4c-0.2-0.1-0.5-0.2-0.7-0.3c-0.3-0.1-0.5-0.2-0.8-0.3
		l-0.9-0.3c-0.2-0.1-0.5-0.2-0.7-0.4s-0.4-0.4-0.5-0.6c-0.1-0.3-0.2-0.7-0.2-1s0.1-0.7,0.2-1s0.3-0.6,0.6-0.8
		c0.7-0.5,1.5-0.8,2.3-0.7c0.5,0,1,0.1,1.5,0.3c0.4,0.2,0.8,0.4,1.2,0.8L22.1,160L22.1,160z"/>
	<path class="st1" d="M29.5,160c-0.1,0.1-0.2,0.2-0.3,0.2c-0.1,0-0.2,0-0.3-0.1c-0.1-0.1-0.2-0.1-0.4-0.2c-0.2-0.1-0.3-0.2-0.5-0.2
		c-0.2-0.1-0.5-0.1-0.7-0.1s-0.5,0-0.7,0.1s-0.4,0.2-0.5,0.3s-0.3,0.2-0.3,0.4c-0.1,0.2-0.1,0.3-0.1,0.5s0.1,0.4,0.2,0.5
		c0.2,0.2,0.3,0.3,0.5,0.4c0.2,0.1,0.4,0.1,0.7,0.2l0.8,0.3c0.3,0.1,0.5,0.2,0.9,0.3c0.2,0.1,0.5,0.3,0.7,0.4
		c0.2,0.2,0.4,0.4,0.5,0.6c0.2,0.3,0.2,0.6,0.2,0.9c0,0.4-0.1,0.8-0.2,1.1c-0.2,0.3-0.4,0.6-0.6,0.9c-0.3,0.3-0.6,0.5-1,0.6
		c-0.4,0.2-0.9,0.2-1.4,0.2c-0.6,0-1.1-0.1-1.6-0.3s-0.9-0.4-1.3-0.8l0.4-0.6l0.2-0.2c0,0,0.2,0,0.3,0c0.1,0,0.2,0,0.3,0.1l0.4,0.3
		c0.2,0.1,0.4,0.2,0.6,0.3c0.3,0.1,0.6,0.1,0.9,0.1s0.5,0,0.8-0.1c0.2-0.1,0.4-0.2,0.5-0.3c0.2-0.1,0.3-0.3,0.3-0.5
		c0.1-0.2,0.1-0.4,0.1-0.5c0-0.2-0.1-0.4-0.2-0.6c-0.2-0.2-0.3-0.3-0.5-0.4c-0.2-0.1-0.5-0.2-0.7-0.3c-0.3-0.1-0.6-0.2-0.9-0.3
		s-0.5-0.2-0.9-0.3c-0.2-0.1-0.5-0.2-0.7-0.4s-0.4-0.4-0.5-0.6c-0.3-0.6-0.3-1.4,0-2c0.2-0.3,0.4-0.6,0.7-0.8c0.3-0.2,0.6-0.4,1-0.5
		s0.8-0.2,1.3-0.2s1,0.1,1.5,0.3c0.4,0.2,0.8,0.4,1.2,0.8L29.5,160L29.5,160z"/>
	<path class="st1" d="M39.2,161c-0.2-0.5-0.4-1-0.8-1.4c-0.3-0.4-0.8-0.7-1.3-0.9s-1.1-0.3-1.7-0.3l0,0c-0.6,0-1.2,0.1-1.8,0.3
		c-0.5,0.2-0.9,0.5-1.3,0.9c-0.4,0.4-0.7,0.9-0.9,1.4c-0.4,1.2-0.4,2.5,0,3.7c0.2,0.5,0.5,1,0.9,1.4c0.3,0.4,0.8,0.7,1.3,0.9
		c1.1,0.4,2.3,0.4,3.4,0c0.5-0.2,1-0.5,1.4-0.9s0.7-0.9,0.8-1.4C39.5,163.5,39.5,162.2,39.2,161z M37.3,165.3
		c-0.5,0.6-1.2,0.9-1.9,0.9l0,0c-0.4,0-0.8-0.1-1.1-0.2c-0.3-0.1-0.6-0.4-0.8-0.6c-0.2-0.3-0.4-0.6-0.5-1c-0.1-0.5-0.2-0.9-0.2-1.4
		s0.1-0.9,0.2-1.4c0.1-0.4,0.3-0.7,0.5-1s0.5-0.5,0.8-0.6c0.4-0.1,0.7-0.2,1.1-0.2c0.7-0.1,1.5,0.3,1.9,0.8
		C38.2,162,38.2,163.8,37.3,165.3z"/>
	<path class="st1" d="M41.3,167.2v-8.6h0.9c0.2,0,0.4,0.1,0.4,0.3l0.1,1c0.4-0.4,0.8-0.7,1.3-1s1-0.4,1.6-0.4c0.4,0,0.9,0.1,1.3,0.2
		c0.3,0.2,0.7,0.4,0.9,0.6c0.2,0.3,0.4,0.6,0.5,1s0.2,0.9,0.2,1.3v5.5H47v-5.5c0-0.5-0.1-1.1-0.4-1.5c-0.4-0.4-0.9-0.6-1.4-0.5
		c-0.4,0-0.9,0.1-1.3,0.3c-0.4,0.2-0.8,0.5-1.1,0.9v6.3L41.3,167.2L41.3,167.2z"/>
	<path class="st1" d="M60.6,156.9l-0.2,0.2c-0.1,0-0.1,0.1-0.2,0.1c-0.1,0-0.3-0.1-0.3-0.2l-0.5-0.3c-0.2-0.1-0.5-0.2-0.7-0.3
		c-0.3-0.1-0.7-0.2-1-0.2s-0.7,0-1,0.2c-0.3,0.1-0.5,0.2-0.7,0.4s-0.3,0.4-0.4,0.6c-0.1,0.2-0.2,0.5-0.2,0.8s0.1,0.6,0.3,0.9
		c0.2,0.2,0.4,0.4,0.6,0.6c0.3,0.2,0.7,0.3,1,0.4l1.1,0.4c0.4,0.1,0.7,0.3,1.1,0.4c0.3,0.2,0.7,0.4,1,0.6c0.3,0.2,0.5,0.5,0.6,0.9
		c0.2,0.4,0.3,0.8,0.3,1.3s-0.1,1-0.2,1.6c-0.2,0.5-0.4,0.9-0.8,1.2c-0.4,0.4-0.8,0.6-1.3,0.8c-0.6,0.2-1.2,0.3-1.8,0.3
		c-0.7,0-1.5-0.2-2.1-0.4c-0.6-0.3-1.2-0.7-1.7-1.2l0.5-1l0.2-0.2c0.1,0,0.1-0.1,0.2-0.1c0.2,0,0.3,0.1,0.4,0.2
		c0.2,0.1,0.3,0.3,0.6,0.4c0.3,0.2,0.6,0.3,0.8,0.4c0.4,0.1,0.8,0.2,1.2,0.2s0.7-0.1,1.1-0.2c0.3-0.1,0.6-0.3,0.8-0.5
		s0.4-0.4,0.5-0.7s0.2-0.6,0.2-0.9c0-0.3-0.1-0.6-0.3-0.9c-0.2-0.2-0.4-0.4-0.6-0.6c-0.3-0.2-0.7-0.3-1-0.4l-1-0.3
		c-0.4-0.1-0.7-0.3-1.1-0.4c-0.3-0.2-0.7-0.4-1-0.6c-0.3-0.3-0.5-0.6-0.6-0.9c-0.6-1.3-0.3-2.7,0.7-3.7c0.3-0.3,0.7-0.6,1.2-0.8
		s1.1-0.3,1.6-0.3c1.2,0,2.4,0.4,3.3,1.2L60.6,156.9L60.6,156.9z"/>
	<polygon class="st1" points="63.3,167.2 64.8,167.2 64.8,154.7 63.3,154.7 	"/>
	<polygon class="st1" points="67.6,167.2 69.2,167.2 69.2,158.5 67.7,158.5 	"/>
	<path class="st1" d="M69.5,155.8c0,0.1,0,0.3-0.1,0.4c-0.1,0.1-0.1,0.2-0.2,0.3s-0.2,0.2-0.3,0.2c-0.3,0.1-0.6,0.1-0.8,0
		c-0.1-0.1-0.2-0.1-0.3-0.2c-0.2-0.2-0.3-0.5-0.3-0.8c0-0.1,0-0.3,0.1-0.4c0.1-0.3,0.3-0.5,0.6-0.6c0.3-0.1,0.6-0.1,0.8,0
		c0.1,0.1,0.2,0.1,0.3,0.2c0.1,0.1,0.2,0.2,0.2,0.3C69.5,155.5,69.5,155.7,69.5,155.8L69.5,155.8z"/>
	<path class="st1" d="M77.4,154.6v4.8c-0.3-0.3-0.6-0.6-1-0.8c-0.9-0.4-2-0.4-2.9,0c-0.5,0.2-0.9,0.6-1.2,1
		c-0.3,0.4-0.6,0.9-0.7,1.4c-0.2,0.6-0.3,1.2-0.3,1.8s0.1,1.3,0.2,1.9c0.1,0.5,0.3,1,0.6,1.4c0.3,0.4,0.6,0.7,1,0.9
		c1,0.4,2.1,0.3,3-0.2c0.5-0.3,0.9-0.6,1.3-1.1l0.2,1.1c0,0.2,0.2,0.3,0.4,0.3h0.9v-12.6h-1.5V154.6z M77.3,164.8
		c-0.3,0.4-0.6,0.7-1,1c-0.4,0.2-0.8,0.3-1.3,0.3c-0.3,0-0.6-0.1-1-0.2c-0.3-0.1-0.5-0.3-0.7-0.6s-0.4-0.6-0.4-1
		c-0.1-0.5-0.2-0.9-0.2-1.4c-0.1-0.9,0.2-1.7,0.6-2.5c0.4-0.6,1.1-0.9,1.9-0.9c0.4,0,0.8,0.1,1.1,0.2c0.4,0.2,0.7,0.5,0.9,0.8
		L77.3,164.8L77.3,164.8z"/>
	<path class="st1" d="M88.4,162.8c0-0.2,0-0.3,0-0.5c0-0.6-0.1-1.1-0.3-1.7c-0.2-0.5-0.4-0.9-0.7-1.2c-0.3-0.3-0.7-0.6-1.1-0.8
		c-0.5-0.2-0.9-0.2-1.4-0.3l0,0c-0.6-0.1-1.2,0.1-1.7,0.5c-0.5,0.2-0.9,0.5-1.3,0.9s-0.6,0.8-0.8,1.3c-0.2,0.6-0.3,1.1-0.3,1.7
		c0,0.7,0.1,1.4,0.3,2c0.2,0.5,0.5,1,0.9,1.4c0.3,0.4,0.8,0.7,1.3,0.9s1.1,0.3,1.7,0.3c0.3,0,0.7,0,1-0.1s0.6-0.1,0.9-0.3
		c0.3-0.1,0.6-0.2,0.9-0.4s0.5-0.4,0.7-0.6l-0.4-0.5c-0.1-0.1-0.2-0.2-0.3-0.2c-0.1,0-0.2,0-0.3,0.1c-0.1,0-0.3,0.2-0.5,0.3
		s-0.4,0.2-0.7,0.3c-0.3,0.1-0.7,0.1-1,0.1c-0.4,0-0.8-0.1-1.1-0.2c-0.3-0.1-0.6-0.3-0.8-0.6c-0.2-0.3-0.4-0.6-0.5-1
		c-0.2-0.5-0.2-1-0.2-1.4H88.4C88.2,162.9,88.3,162.9,88.4,162.8z M82.4,162c0.1-0.7,0.4-1.3,0.8-1.8s1.1-0.7,1.7-0.6l0,0
		c0.3,0,0.6,0,0.9,0.2c0.3,0.1,0.5,0.3,0.7,0.5s0.3,0.5,0.4,0.7c0.1,0.3,0.2,0.7,0.2,1L82.4,162L82.4,162z"/>
	<path class="st1" d="M95.3,160c-0.1,0.1-0.2,0.2-0.3,0.2c-0.1,0-0.2,0-0.3-0.1c-0.1-0.1-0.2-0.1-0.4-0.2c-0.2-0.1-0.4-0.2-0.6-0.2
		c-0.2-0.1-0.5-0.1-0.7-0.1s-0.5,0-0.7,0.1s-0.4,0.2-0.5,0.3s-0.3,0.2-0.3,0.4c-0.1,0.2-0.1,0.3-0.1,0.5s0.1,0.4,0.2,0.5
		s0.3,0.3,0.5,0.4c0.2,0.1,0.5,0.2,0.7,0.3l0.8,0.3l0.8,0.3c0.3,0.1,0.5,0.3,0.8,0.4c0.2,0.2,0.4,0.4,0.5,0.6
		c0.1,0.3,0.2,0.6,0.2,0.9c0,0.4-0.1,0.8-0.2,1.1s-0.4,0.6-0.6,0.9c-0.3,0.3-0.6,0.5-1,0.6c-0.4,0.2-0.9,0.2-1.4,0.2
		c-0.6,0-1.1-0.1-1.7-0.3c-0.5-0.2-0.9-0.4-1.2-0.8l0.4-0.6l0.2-0.2c0.1,0,0.2-0.1,0.3-0.1c0.1,0,0.2,0,0.3,0.1
		c0.1,0.1,0.3,0.2,0.4,0.3c0.2,0.1,0.4,0.2,0.6,0.3c0.3,0.1,0.6,0.1,0.8,0.1c0.3,0,0.5,0,0.8-0.1c0.2-0.1,0.4-0.2,0.5-0.3
		c0.2-0.1,0.3-0.3,0.3-0.5c0.1-0.2,0.1-0.4,0.1-0.5c0-0.2-0.1-0.4-0.2-0.6c-0.2-0.2-0.3-0.3-0.5-0.4c-0.2-0.1-0.5-0.2-0.7-0.3
		l-0.8-0.3l-0.9-0.3c-0.3-0.1-0.5-0.3-0.7-0.4c-0.2-0.2-0.4-0.4-0.5-0.6c-0.3-0.6-0.3-1.4,0-2c0.1-0.3,0.3-0.6,0.6-0.8
		c0.3-0.2,0.6-0.4,1-0.5s0.8-0.2,1.3-0.2s1,0.1,1.5,0.3c0.4,0.2,0.8,0.4,1.2,0.8L95.3,160L95.3,160z"/>
</g>
<g>
	<path class="st0" d="M358.5,99.1L358.5,99.1c-1.6-1.7-3.5-3.2-5.5-4.4c-0.4-0.2-0.9-0.1-1.2,0.3c-0.3-0.6-0.9-0.8-1.8,0.2l-2.3,2.7
		c-0.1-0.5-0.5-1-1.1-1.1L310.7,85c0-1.9-2.9-2.7-3.6-0.6c-4.8,15.5-9.9,30.9-15.2,46.2c-0.4,0.9,0.1,2,1,2.4l41.5,13.8
		c1,0.3,2.1-0.2,2.4-1.2l0,0c0-0.1,0.1-0.3,0.1-0.4c1.4-6.8,2.9-13.6,4.5-20.3c5.6-7.3,11.3-14.6,16.8-22
		C358.9,101.9,359.5,100.1,358.5,99.1z M333.8,142.7L296,130.1c4.8-13.7,9.3-27.6,13.7-41.5l34,11.1c-0.4,1.4-0.7,2.7-1,4.1
		c-1.5,1.9-3,3.7-4.5,5.6c-1.1,1.4-2.3,2.8-3.5,4.1l-0.4-0.2l-17.1-4.5c-2.6-0.7-4.2,3.3-1.5,4l16,4.2c-1.4,1.7-2.8,3.5-4,5.3
		l-15.3-3.6c-2.7-0.6-3,3.6-0.4,4.3l14,3.2v0.3c0,3.3,0,6.7,0,10c-0.1,0.5,0.1,1,0.4,1.3c0.3,1,1,1.6,2.1,0.7c2.6-2.2,5-4.5,7.5-6.8
		l0.2-0.2C335.4,135.3,334.6,138.9,333.8,142.7z M343.5,116.5l-0.1,0.2l-5.4,7.2l-0.6,0.8c-0.4,0.5-0.8,1-1.2,1.5
		c-0.1-0.1-0.2-0.1-0.3-0.2c-0.2-0.1-0.5-0.3-0.7-0.4c-0.2-0.9-0.9-1.6-1.8-1.9l-1.8-0.4c3-3.6,5.8-7.5,8.7-11.1l0.5-0.6l2.9-3.6
		c0.8,0.6,1.6,1.2,2.6,1.6c0.6,0.3,1.2,0.7,1.8,1L343.5,116.5z M350.8,106.8c-0.9-0.5-1.8-1-2.7-1.3c-0.6-0.3-1.2-0.6-1.8-0.8
		c1.7-2.1,3.4-4.3,5-6.5c1,1.4,2.1,2.6,3.3,3.8C353.3,103.5,352.1,105.1,350.8,106.8z"/>
	<path class="st0" d="M309.8,105.9c-2.5-1-4.1,3-1.5,4S312.3,106.9,309.8,105.9z"/>
	<path class="st0" d="M306.9,117.5c-1.1-0.4-2.3,0.2-2.7,1.3c-0.4,1.1,0.2,2.3,1.3,2.7C308,122.5,309.4,118.5,306.9,117.5z"/>
	<path class="st0" d="M317.9,101.7L317.9,101.7l17.1,4.4c2.6,0.7,4.2-3.3,1.5-4l-17.1-4.4C316.8,97.1,315.3,101,317.9,101.7z"/>
	<path class="st1" d="M273.6,164.9c0.1,0,0.2,0,0.3,0.1l0.6,0.7c-0.5,0.6-1.1,1-1.8,1.3c-0.8,0.3-1.7,0.5-2.5,0.5s-1.6-0.2-2.4-0.5
		c-0.7-0.3-1.3-0.7-1.8-1.3s-0.9-1.3-1.2-2c-0.3-0.8-0.4-1.7-0.4-2.6c0-0.9,0.2-1.7,0.4-2.6c0.3-0.8,0.7-1.4,1.3-2
		c0.6-0.5,1.2-1,1.9-1.3c0.8-0.3,1.6-0.5,2.5-0.5c0.8,0,1.6,0.1,2.3,0.4c0.6,0.3,1.2,0.6,1.8,1.1l-0.5,0.7l-0.2,0.2
		c-0.1,0-0.1,0.1-0.2,0.1s-0.2-0.1-0.2-0.1l-0.3-0.2c-0.1-0.1-0.3-0.2-0.4-0.3s-0.4-0.2-0.5-0.3c-0.2-0.1-0.5-0.2-0.7-0.2
		c-0.9-0.2-1.9-0.1-2.8,0.2c-0.5,0.2-1,0.6-1.4,1s-0.7,0.9-0.9,1.5c-0.4,1.3-0.4,2.7,0,4c0.2,0.6,0.5,1.1,0.9,1.5s0.8,0.8,1.3,1
		s1.1,0.3,1.6,0.3c0.3,0,0.7,0,1-0.1c0.3,0,0.5-0.1,0.8-0.2c0.3-0.1,0.5-0.2,0.7-0.3l0.6-0.5C273.4,165,273.5,164.9,273.6,164.9"/>
	<path class="st1" d="M277.8,158.8v5.5c0,0.5,0.1,1.1,0.4,1.5c0.4,0.4,0.9,0.6,1.4,0.5c0.4,0,0.8-0.1,1.2-0.3
		c0.4-0.2,0.8-0.5,1.1-0.9v-6.4h1.5v8.6h-0.9c-0.2,0-0.4-0.1-0.4-0.3l-0.1-1c-0.4,0.4-0.8,0.7-1.3,1s-1,0.4-1.6,0.4
		c-0.4,0-0.8-0.1-1.2-0.2c-0.7-0.3-1.2-0.9-1.4-1.6c-0.1-0.4-0.2-0.9-0.2-1.3v-5.5H277.8L277.8,158.8z"/>
	<path class="st1" d="M290.9,160.2c-0.1,0.1-0.2,0.2-0.3,0.2c-0.1,0-0.2,0-0.3-0.1c-0.1-0.1-0.3-0.1-0.4-0.2
		c-0.2-0.1-0.3-0.2-0.5-0.2c-0.2-0.1-0.5-0.1-0.7-0.1s-0.5,0-0.7,0.1s-0.4,0.1-0.5,0.3c-0.2,0.1-0.3,0.3-0.3,0.4
		c-0.1,0.2-0.1,0.3-0.1,0.5s0.1,0.4,0.2,0.5c0.2,0.2,0.3,0.3,0.5,0.4c0.2,0.1,0.5,0.2,0.7,0.3l0.8,0.3l0.8,0.3
		c0.2,0.1,0.5,0.3,0.7,0.4c0.2,0.2,0.4,0.4,0.5,0.6c0.1,0.3,0.2,0.6,0.2,0.9c0,0.4-0.1,0.8-0.2,1.1c-0.2,0.3-0.4,0.6-0.6,0.9
		c-0.3,0.3-0.6,0.5-1,0.6c-1,0.3-2,0.3-3-0.1c-0.5-0.2-0.9-0.4-1.2-0.8l0.4-0.6l0.2-0.2c0-0.1,0.2-0.1,0.3-0.1c0.1,0,0.2,0,0.3,0.1
		l0.4,0.3c0.2,0.1,0.4,0.2,0.6,0.3c0.3,0.1,0.6,0.1,0.9,0.1s0.5,0,0.8-0.1c0.2-0.1,0.4-0.2,0.5-0.3c0.2-0.1,0.3-0.3,0.3-0.5
		c0.1-0.2,0.1-0.4,0.1-0.5c0-0.2-0.1-0.4-0.2-0.6c-0.2-0.2-0.3-0.3-0.5-0.4c-0.2-0.1-0.5-0.2-0.8-0.3l-0.8-0.3l-0.8-0.3
		c-0.5-0.2-0.9-0.6-1.2-1.1c-0.1-0.3-0.2-0.7-0.2-1s0.1-0.7,0.2-1s0.3-0.6,0.6-0.8c0.3-0.2,0.6-0.4,1-0.5s0.9-0.2,1.3-0.2
		c0.5,0,1,0.1,1.5,0.3c0.4,0.2,0.8,0.4,1.2,0.8L290.9,160.2L290.9,160.2z"/>
	<path class="st1" d="M295.9,167.6c-0.6,0.1-1.2-0.2-1.6-0.6c-0.4-0.5-0.6-1.1-0.5-1.6v-5.3h-1.1c-0.1,0-0.2,0-0.2-0.1
		c-0.1-0.1-0.1-0.2-0.1-0.3v-0.6l1.4-0.2l0.4-2.7c0-0.2,0.1-0.3,0.3-0.3h0.8v3h2.5v1.1h-2.5v5.2c0,0.3,0.1,0.6,0.3,0.8
		c0.2,0.2,0.4,0.3,0.7,0.3c0.1,0,0.3,0,0.4-0.1l0.3-0.2l0.2-0.2c0,0,0.1-0.1,0.2-0.1s0.2,0.1,0.2,0.2l0.4,0.7
		c-0.3,0.3-0.6,0.5-1,0.6C296.7,167.5,296.3,167.6,295.9,167.6"/>
	<path class="st1" d="M306.9,161.2c-0.2-0.5-0.4-1-0.8-1.4c-0.3-0.4-0.8-0.7-1.3-0.9s-1.1-0.3-1.7-0.3s-1.2,0.1-1.7,0.3
		s-0.9,0.5-1.3,0.9s-0.6,0.9-0.8,1.4c-0.4,1.2-0.4,2.5,0,3.7c0.2,0.5,0.4,1,0.8,1.4c0.3,0.4,0.8,0.7,1.3,0.9c1.1,0.4,2.3,0.4,3.4,0
		c0.5-0.2,0.9-0.5,1.3-0.9s0.6-0.9,0.8-1.4C307.3,163.7,307.3,162.4,306.9,161.2z M305,165.5c-0.5,0.6-1.2,0.9-1.9,0.9l0,0
		c-0.4,0-0.8-0.1-1.1-0.2c-0.3-0.1-0.6-0.4-0.8-0.6c-0.2-0.3-0.4-0.6-0.5-1c-0.2-0.9-0.2-1.9,0-2.8c0.1-0.4,0.3-0.7,0.5-1
		s0.5-0.5,0.8-0.6c0.4-0.1,0.7-0.2,1.1-0.2c0.7,0,1.4,0.3,1.9,0.8C305.9,162.2,305.9,164,305,165.5z"/>
	<path class="st1" d="M309.1,167.4v-8.6h0.9c0.2,0,0.4,0.1,0.4,0.3l0.1,0.9c0.3-0.4,0.7-0.7,1.1-1s0.9-0.4,1.4-0.4s1,0.2,1.4,0.5
		c0.4,0.4,0.6,0.8,0.8,1.3c0.3-0.9,1-1.5,1.9-1.7c0.3-0.1,0.6-0.1,0.9-0.1c0.4,0,0.8,0.1,1.2,0.2c0.3,0.2,0.7,0.4,0.9,0.6
		c0.2,0.3,0.4,0.6,0.6,1c0.1,0.4,0.2,0.9,0.2,1.4v5.5h-1.5v-5.5c0-0.6-0.1-1.1-0.4-1.6c-0.3-0.4-0.8-0.6-1.3-0.5
		c-0.2,0-0.5,0-0.7,0.1s-0.4,0.2-0.6,0.4s-0.3,0.4-0.4,0.6c-0.1,0.3-0.2,0.6-0.2,0.9v5.5h-1.5v-5.5c0.1-0.5-0.1-1.1-0.4-1.5
		s-0.8-0.5-1.2-0.5c-0.4,0-0.8,0.1-1.1,0.3c-0.3,0.2-0.6,0.5-0.9,0.8v6.4L309.1,167.4L309.1,167.4z"/>
	<rect x="323.3" y="158.8" class="st1" width="1.5" height="8.6"/>
	<path class="st1" d="M325.1,156.1c0,0.1,0,0.3-0.1,0.4c-0.1,0.1-0.1,0.2-0.2,0.3s-0.2,0.2-0.4,0.2c-0.1,0.1-0.3,0.1-0.4,0.1
		s-0.3,0-0.4-0.1c-0.3-0.1-0.5-0.3-0.6-0.5c-0.1-0.1-0.1-0.3-0.1-0.4c0-0.4,0.2-0.8,0.6-1c0.1-0.1,0.3-0.1,0.5-0.1
		c0.1,0,0.3,0,0.4,0.1c0.1,0,0.3,0.2,0.4,0.2c0.1,0.1,0.2,0.2,0.2,0.3C325.1,155.8,325.2,155.9,325.1,156.1L325.1,156.1z"/>
	<path class="st1" d="M333.5,159.4c0,0.1,0,0.2,0,0.3s-0.1,0.2-0.2,0.3l-4.7,6.2h4.7v1.2h-6.4v-0.6c0-0.1,0-0.2,0-0.3
		s0.1-0.2,0.2-0.3l4.7-6.3h-4.6v-1.2h6.4L333.5,159.4z"/>
	<g>
		<path class="st1" d="M341.5,160.8c-0.1-0.4-0.3-0.7-0.6-1c-0.3-0.3-0.6-0.5-1-0.6c-0.4-0.2-0.8-0.3-1.3-0.3
			c-1.3,0-2.5,0.5-3.4,1.3l0.3,0.5c0,0.1,0.1,0.2,0.2,0.2s0.2,0,0.3,0c0.1,0,0.3-0.1,0.4-0.2c0.1-0.1,0.3-0.2,0.5-0.3l0.6-0.3
			c0.3-0.1,0.7-0.2,1-0.2c0.5-0.1,1,0.1,1.3,0.5s0.5,1,0.4,1.5v0.8c-0.8,0-1.7,0-2.5,0.2c-0.6,0.1-1.1,0.3-1.6,0.6
			c-0.4,0.2-0.7,0.5-0.9,0.9c-0.3,0.6-0.3,1.4,0,2c0.1,0.3,0.3,0.5,0.5,0.7s0.5,0.3,0.8,0.4c0.3,0.1,0.7,0.2,1,0.2s0.6,0,0.9-0.1
			s0.5-0.2,0.8-0.3c0.2-0.1,0.5-0.3,0.7-0.4c0.2-0.2,0.4-0.3,0.6-0.5l0.2,0.8c0,0.1,0.1,0.2,0.2,0.3c0.1,0,0.2,0,0.4,0h0.7v-5.3
			C341.7,161.6,341.6,161.2,341.5,160.8z M340.2,165.3c-0.2,0.2-0.3,0.3-0.5,0.5c-0.2,0.1-0.4,0.3-0.6,0.4c-0.2,0.1-0.4,0.2-0.6,0.2
			c-0.2,0.1-0.5,0.1-0.7,0.1l0,0l0,0l0,0c-0.2,0-0.3,0-0.5-0.1c-0.2,0-0.3-0.1-0.4-0.2c-0.1-0.1-0.3-0.3-0.3-0.4
			c-0.1-0.2-0.1-0.4-0.1-0.6c0-0.2,0.1-0.5,0.2-0.6c0.2-0.2,0.4-0.4,0.7-0.5c0.4-0.2,0.8-0.3,1.2-0.3c0.6-0.1,1.2-0.1,1.8-0.1v1.6
			H340.2z"/>
		<polygon class="st1" points="341.7,167.4 341.7,167.4 341.7,167.5 		"/>
	</g>
	<path class="st1" d="M351.3,161.1c-0.1-0.5-0.3-1-0.6-1.4c-0.3-0.4-0.6-0.7-1-0.9s-0.9-0.3-1.3-0.3c-0.6,0-1.1,0.1-1.6,0.4
		c-0.5,0.3-0.9,0.6-1.2,1v-5.2H344v12.6l1,0.1c0.2,0,0.4-0.1,0.4-0.3l0.1-0.8c0.3,0.4,0.6,0.7,1,0.9c0.5,0.2,0.9,0.3,1.4,0.3
		s1.1-0.1,1.5-0.3c0.4-0.3,0.8-0.6,1.2-1c0.3-0.4,0.6-0.9,0.7-1.4c0.2-0.6,0.3-1.2,0.3-1.8C351.6,162.4,351.5,161.8,351.3,161.1z
		 M349.5,165.5c-0.4,0.6-1.1,0.9-1.9,0.9c-0.4,0-0.8-0.1-1.1-0.2c-0.4-0.2-0.7-0.5-0.9-0.8v-4.2c0.3-0.4,0.6-0.7,1-1
		c0.4-0.2,0.8-0.3,1.2-0.3l0,0h0.1h-0.1c0.3,0,0.7,0,1,0.1s0.5,0.3,0.7,0.6s0.4,0.6,0.4,1c0.1,0.5,0.2,1,0.2,1.4
		C350.1,163.9,349.9,164.7,349.5,165.5z"/>
	<rect x="353.6" y="154.8" class="st1" width="1.5" height="12.6"/>
	<path class="st1" d="M364.8,163c0.1-0.1,0.1-0.3,0.1-0.5c0-0.6-0.1-1.1-0.3-1.7c-0.3-0.9-1-1.6-1.9-2c-0.5-0.2-0.9-0.2-1.4-0.3l0,0
		c-0.6,0-1.2,0.1-1.8,0.4c-0.5,0.2-0.9,0.5-1.3,0.9s-0.6,0.8-0.8,1.3c-0.4,1.2-0.3,2.5,0,3.7c0.2,0.5,0.5,1,0.9,1.4s0.8,0.7,1.3,0.9
		s1.1,0.3,1.6,0.3c0.3,0,0.7,0,1,0c0.3-0.1,0.6-0.1,0.9-0.3c0.3-0.1,0.6-0.3,0.8-0.4c0.3-0.2,0.5-0.4,0.7-0.6l-0.4-0.5
		c-0.1-0.1-0.2-0.2-0.3-0.2c-0.1,0-0.3,0-0.4,0.1c-0.2,0.1-0.3,0.2-0.5,0.3s-0.4,0.2-0.7,0.3c-0.3,0.1-0.7,0.1-1,0.1
		c-0.4,0-0.8-0.1-1.1-0.2c-0.3-0.1-0.6-0.3-0.9-0.6s-0.5-0.6-0.6-1c-0.1-0.5-0.2-1-0.2-1.4h5.8C364.6,163.1,364.7,163.1,364.8,163z
		 M358.8,162.1c0.1-0.7,0.3-1.3,0.8-1.8c0.4-0.5,1.1-0.7,1.7-0.6l0,0c0.3,0,0.6,0.1,0.9,0.2c0.3,0.1,0.5,0.3,0.7,0.5
		s0.3,0.5,0.4,0.7c0.1,0.3,0.2,0.7,0.2,1L358.8,162.1L358.8,162.1z"/>
	<path class="st1" d="M282.8,183.8c-0.2-0.2-0.3-0.4-0.5-0.5c0.4-0.1,0.9-0.3,1.3-0.5s0.7-0.4,1-0.7c0.2-0.3,0.4-0.6,0.6-1
		c0.1-0.4,0.2-0.8,0.2-1.2c0-0.5-0.1-0.9-0.3-1.4c-0.2-0.4-0.4-0.8-0.8-1.1s-0.9-0.6-1.4-0.7c-0.7-0.1-1.3-0.2-2-0.2h-3.5v12.2h1.7
		v-5.1h1.2c0.2,0,0.4,0,0.5,0.1s0.2,0.2,0.3,0.3l3.2,4.3c0.1,0.2,0.4,0.4,0.6,0.4h1.4L282.8,183.8z M280.9,182.4h-1.8v-4.6h1.8
		c0.8-0.1,1.5,0.1,2.1,0.5c0.5,0.4,0.7,1,0.7,1.7c0,0.3,0,0.7-0.2,1c-0.1,0.3-0.3,0.5-0.5,0.8c-0.3,0.2-0.6,0.4-0.9,0.5
		C281.7,182.4,281.3,182.4,280.9,182.4z"/>
	<path class="st1" d="M295,184.2c0.1-0.2,0.1-0.3,0.1-0.5c0-0.6-0.1-1.1-0.3-1.7c-0.2-0.5-0.4-0.9-0.7-1.2c-0.3-0.3-0.7-0.6-1.1-0.8
		c-0.5-0.2-0.9-0.2-1.4-0.3l0,0c-0.6,0-1.2,0.1-1.8,0.4c-0.5,0.2-0.9,0.5-1.3,0.9s-0.6,0.8-0.8,1.3c-0.4,1.2-0.4,2.5,0,3.7
		c0.2,0.5,0.5,1,0.9,1.4s0.8,0.7,1.3,0.9s1.1,0.3,1.7,0.3c0.3,0,0.7,0,1,0c0.3-0.1,0.6-0.1,0.9-0.3c0.3-0.1,0.6-0.3,0.9-0.4
		c0.3-0.2,0.5-0.4,0.7-0.6l-0.4-0.5c0-0.1-0.2-0.2-0.3-0.2c-0.1,0-0.3,0-0.4,0.1c-0.2,0.1-0.3,0.1-0.5,0.3c-0.2,0.1-0.5,0.2-0.7,0.3
		c-0.3,0.1-0.6,0.1-1,0.1s-0.8-0.1-1.1-0.2c-0.3-0.1-0.6-0.3-0.8-0.6c-0.2-0.3-0.4-0.6-0.5-1c-0.1-0.5-0.2-0.9-0.2-1.4H295
		C294.8,184.3,294.9,184.3,295,184.2z M288.9,183.4c0.1-0.7,0.4-1.3,0.8-1.8c0.4-0.4,1.1-0.7,1.7-0.6l0,0c0.3,0,0.6,0.1,0.9,0.2
		c0.5,0.2,0.9,0.7,1.1,1.2c0.1,0.3,0.2,0.7,0.2,1L288.9,183.4L288.9,183.4z"/>
	<path class="st1" d="M301.8,181.4c-0.1,0.1-0.2,0.2-0.3,0.2c-0.1,0-0.2,0-0.3-0.1c-0.1-0.1-0.3-0.1-0.4-0.2
		c-0.2-0.1-0.3-0.2-0.5-0.2c-0.2-0.1-0.5-0.1-0.7-0.1s-0.5,0-0.7,0.1s-0.4,0.2-0.5,0.3c-0.2,0.1-0.3,0.3-0.3,0.4
		c-0.1,0.2-0.1,0.3-0.1,0.5s0.1,0.4,0.2,0.5c0.2,0.2,0.3,0.3,0.5,0.4c0.2,0.1,0.5,0.2,0.7,0.3l0.8,0.3l0.8,0.3
		c0.2,0.1,0.5,0.3,0.7,0.4c0.2,0.2,0.4,0.4,0.5,0.6c0.2,0.3,0.2,0.6,0.2,0.9c0,0.4-0.1,0.8-0.2,1.1s-0.4,0.6-0.6,0.9
		c-0.3,0.3-0.6,0.5-1,0.6c-1,0.3-2,0.3-3-0.1c-0.5-0.2-0.9-0.4-1.2-0.8l0.4-0.6l0.2-0.2c0-0.1,0.2-0.1,0.3-0.1c0.1,0,0.2,0,0.3,0.1
		c0.1,0.1,0.3,0.2,0.4,0.3c0.2,0.1,0.4,0.2,0.6,0.3c0.3,0.1,0.6,0.1,0.9,0.1s0.5,0,0.8-0.1c0.2,0,0.4-0.2,0.5-0.3
		c0.2-0.1,0.3-0.3,0.3-0.5c0.1-0.2,0.1-0.3,0.1-0.5s-0.1-0.4-0.2-0.6c-0.2-0.2-0.3-0.3-0.5-0.4c-0.2-0.1-0.5-0.2-0.7-0.3l-0.8-0.3
		l-0.9-0.3c-0.3-0.1-0.5-0.3-0.7-0.4c-0.2-0.2-0.4-0.4-0.5-0.6c-0.3-0.6-0.3-1.4,0-2c0.1-0.3,0.3-0.6,0.6-0.8c0.3-0.2,0.6-0.4,1-0.5
		s0.9-0.2,1.3-0.2c0.5,0,1.1,0.1,1.5,0.3s0.8,0.4,1.2,0.8L301.8,181.4L301.8,181.4z"/>
	<path class="st1" d="M311.6,182.4c-0.2-0.5-0.4-1-0.8-1.4c-0.3-0.4-0.8-0.7-1.3-0.9s-1.1-0.3-1.7-0.3l0,0c-0.6,0-1.2,0.1-1.7,0.3
		s-0.9,0.5-1.3,0.9s-0.6,0.9-0.8,1.4c-0.4,1.2-0.4,2.5,0,3.7c0.2,0.5,0.4,1,0.8,1.4c0.3,0.4,0.8,0.7,1.3,0.9c1.1,0.4,2.3,0.4,3.4,0
		c0.5-0.2,0.9-0.5,1.3-0.9s0.6-0.9,0.8-1.4C312,184.9,312,183.6,311.6,182.4z M309.8,186.7c-0.5,0.6-1.2,0.9-1.9,0.8l0,0
		c-0.4,0-0.8-0.1-1.1-0.2c-0.3-0.1-0.6-0.4-0.8-0.6c-0.2-0.3-0.4-0.6-0.5-1c-0.2-0.9-0.2-1.9,0-2.8c0.1-0.4,0.3-0.7,0.5-1
		s0.5-0.5,0.8-0.6c0.4-0.1,0.7-0.2,1.1-0.2c0.7,0,1.5,0.3,1.9,0.9C310.6,183.4,310.6,185.2,309.8,186.7z"/>
	<path class="st1" d="M315.1,180v5.5c0,0.5,0.1,1.1,0.4,1.5s0.8,0.6,1.3,0.5c0.4,0,0.9-0.1,1.3-0.3s0.8-0.5,1.1-0.9V180h1.5v8.6
		h-0.9c-0.2,0-0.4-0.1-0.4-0.3l-0.1-1c-0.3,0.4-0.8,0.7-1.2,1c-0.5,0.3-1,0.4-1.6,0.4c-0.4,0-0.8-0.1-1.2-0.2
		c-0.3-0.2-0.7-0.4-0.9-0.6c-0.2-0.3-0.4-0.6-0.5-1s-0.2-0.9-0.2-1.3V180H315.1L315.1,180L315.1,180z"/>
	<path class="st1" d="M323.3,188.6V180h0.9c0.1,0,0.3,0,0.3,0.1c0.1,0.1,0.1,0.2,0.1,0.3l0.1,1.3c0.3-0.5,0.6-1,1.1-1.4
		c0.4-0.4,1-0.5,1.5-0.5c0.4,0,0.8,0.1,1.2,0.3l-0.2,1.1c0,0.1-0.1,0.2-0.3,0.2c-0.1,0-0.3-0.1-0.4-0.1c-0.2-0.1-0.5-0.1-0.7-0.1
		c-0.5,0-1,0.2-1.3,0.5c-0.4,0.4-0.7,0.8-0.9,1.3v5.5L323.3,188.6z"/>
	<path class="st1" d="M336,181.6l-0.2,0.2h-0.2c-0.1,0-0.2,0-0.3-0.1c-0.1-0.1-0.2-0.2-0.4-0.2c-0.2-0.1-0.3-0.2-0.5-0.2
		c-0.6-0.2-1.3-0.1-1.9,0.1c-0.3,0.1-0.6,0.4-0.8,0.6c-0.2,0.3-0.4,0.6-0.5,1s-0.2,0.9-0.1,1.3c0,0.5,0.1,0.9,0.2,1.4
		c0.1,0.4,0.3,0.7,0.5,1s0.5,0.5,0.8,0.6s0.7,0.2,1.1,0.2c0.3,0,0.6,0,0.9-0.1c0.2-0.1,0.4-0.1,0.6-0.3c0.1-0.1,0.3-0.2,0.4-0.3
		s0.2-0.1,0.3-0.1c0.1,0,0.2,0.1,0.3,0.2l0.4,0.5c-0.4,0.4-0.8,0.8-1.4,1s-1.2,0.3-1.8,0.3c-0.5,0-1-0.1-1.5-0.3
		c-1-0.4-1.7-1.2-2.1-2.2c-0.2-0.6-0.3-1.2-0.3-1.9c0-0.6,0.1-1.2,0.3-1.8c0.1-0.5,0.4-1,0.8-1.4c0.3-0.4,0.8-0.7,1.3-0.9
		c0.6-0.2,1.2-0.3,1.8-0.3c0.5,0,1.1,0.1,1.6,0.3s0.9,0.5,1.2,0.9L336,181.6L336,181.6z"/>
	<path class="st1" d="M345.1,184.2c0-0.2,0-0.3,0-0.5c0-0.6-0.1-1.1-0.3-1.6c-0.2-0.5-0.4-0.9-0.7-1.2c-0.3-0.3-0.7-0.6-1.1-0.8
		c-0.5-0.2-0.9-0.2-1.4-0.3l0.1-0.1c-0.6,0-1.2,0.1-1.7,0.4c-0.5,0.2-0.9,0.5-1.3,0.9s-0.6,0.8-0.8,1.3c-0.2,0.6-0.3,1.1-0.3,1.7
		c0,0.7,0.1,1.4,0.3,2c0.2,0.5,0.5,1,0.8,1.4s0.8,0.7,1.3,0.9s1.1,0.3,1.6,0.3c0.3,0,0.6,0,1,0c0.3-0.1,0.6-0.1,0.9-0.3
		c0.3-0.1,0.6-0.3,0.8-0.4c0.3-0.2,0.5-0.4,0.7-0.6l-0.4-0.5c-0.1-0.1-0.2-0.2-0.3-0.2c-0.1,0-0.3,0-0.4,0.1
		c-0.2,0.1-0.3,0.2-0.5,0.3s-0.4,0.2-0.7,0.3c-0.3,0.1-0.7,0.1-1,0.1c-0.4,0-0.8-0.1-1.1-0.2c-0.3-0.1-0.6-0.3-0.9-0.6
		s-0.5-0.6-0.6-1c-0.2-0.5-0.2-0.9-0.2-1.4h5.8C344.9,184.3,345,184.3,345.1,184.2z M339,183.4c0.1-0.7,0.3-1.3,0.8-1.8
		c0.5-0.4,1.1-0.7,1.7-0.6l0,0c0.3,0,0.6,0.1,0.9,0.2c0.3,0.1,0.5,0.3,0.7,0.5s0.3,0.5,0.4,0.7c0.1,0.3,0.2,0.7,0.2,1L339,183.4
		L339,183.4z"/>
	<path class="st1" d="M352,181.5c-0.1,0.1-0.2,0.2-0.3,0.2c-0.1,0-0.2,0-0.3-0.1c-0.1-0.1-0.3-0.1-0.4-0.2c-0.2-0.1-0.3-0.2-0.5-0.2
		c-0.2-0.1-0.5-0.1-0.7-0.1s-0.5,0-0.7,0.1s-0.4,0.2-0.5,0.3c-0.2,0.1-0.3,0.3-0.3,0.4c-0.1,0.2-0.1,0.3-0.1,0.5s0.1,0.4,0.2,0.5
		c0.2,0.2,0.3,0.3,0.5,0.4c0.2,0.1,0.5,0.2,0.7,0.3l0.8,0.3l0.8,0.3c0.2,0.1,0.5,0.3,0.7,0.4c0.2,0.2,0.4,0.4,0.5,0.6
		c0.2,0.3,0.2,0.6,0.2,0.9c0,0.4-0.1,0.8-0.2,1.1c-0.2,0.3-0.4,0.6-0.6,0.9c-0.3,0.3-0.6,0.5-1,0.6c-0.4,0.2-0.9,0.2-1.4,0.2
		c-0.6,0-1.1-0.1-1.6-0.3s-0.9-0.4-1.2-0.8l0.4-0.6c0.1-0.2,0.3-0.3,0.4-0.2c0.1,0,0.2,0,0.3,0.1c0.1,0.1,0.3,0.2,0.4,0.3
		c0.2,0.1,0.4,0.2,0.6,0.3c0.3,0.1,0.6,0.1,0.9,0.1s0.5,0,0.8-0.1c0.2,0,0.4-0.2,0.5-0.3c0.2-0.1,0.3-0.3,0.3-0.5
		c0.1-0.2,0.1-0.3,0.1-0.5s-0.1-0.4-0.2-0.6c-0.2-0.2-0.3-0.3-0.5-0.4c-0.2-0.1-0.5-0.2-0.7-0.3l-0.9-0.3l-0.8-0.3
		c-0.3-0.1-0.5-0.3-0.7-0.4c-0.2-0.2-0.4-0.4-0.5-0.6c-0.2-0.3-0.2-0.7-0.2-1s0.1-0.7,0.2-1s0.3-0.6,0.6-0.8c0.3-0.2,0.6-0.4,1-0.5
		s0.9-0.2,1.3-0.2c0.5,0,1,0.1,1.5,0.3c0.4,0.2,0.8,0.4,1.2,0.8L352,181.5L352,181.5z"/>
</g>
<path class="st2" d="M49.2,62.5c3.9,1.9,7.7,3.8,11.6,5.6c1.6,0.8,2-3,0.6-3.7c-3.9-1.7-7.8-3.5-11.7-5.1
	C48.3,58.7,48,61.9,49.2,62.5 M69.4,43.7c0.7,1.2,1.4,2.3,2.2,3.5c0.6,1.1,1.4,2.2,2.3,3.1c1.3,1.2,1.8-1.5,1.4-2.3
	c-0.6-1.2-1.3-2.4-2.1-3.4c-0.7-1.1-1.5-2.2-2.3-3.3c-0.2-0.4-0.8-0.6-1.2-0.3l0,0l0,0c-0.1,0.1-0.3,0.2-0.3,0.4
	C69,42.1,69,43,69.4,43.7 M96,25.4c1,3.6,1.7,7.6,3.3,11.1c0.8,2,2.3,0,2.1-1.4c-0.6-3.7-2.2-7.5-3.3-11C97.4,22.1,95.6,24,96,25.4
	 M263.5,37.5c1.1-1.4,1.9-2.9,2.5-4.5c0.9-1.8,1.8-3.6,2.6-5.5c0.7-1.6-1.2-4.1-2.2-1.9c-0.8,1.7-1.6,3.5-2.4,5.2
	c-0.9,1.6-1.5,3.3-2,5C261.8,36.5,262.5,38.5,263.5,37.5 M281.3,52.3l3.4-3.2c1.2-1,2.3-2.1,3.2-3.3c0.4-0.6,0.3-3.2-1.1-2.5
	c-1.3,0.8-2.4,1.9-3.3,3.1l-3.4,3.5C279.5,50.6,280.2,53.5,281.3,52.3 M291.6,78.6c3.6-2.6,7.5-5.1,10.9-8c0.8-0.7,0.4-3.7-0.9-2.9
	c-3.9,2.4-7.5,5.4-11.1,8.2C289.4,76.6,290.1,79.6,291.6,78.6 M52.8,196.2c-2.1,1-4.2,2.2-6.3,3.3c-2,1-3.9,2.1-5.7,3.4
	c-0.8,0.7-0.5,3.4,0.9,2.9c2.1-0.8,4-1.8,5.8-3c1.9-1.1,3.9-2.1,5.8-3.4C54.5,198.7,54.2,195.5,52.8,196.2 M63.1,209.7
	c-2.9,4.2-6,8.4-8.5,12.8c-0.6,1.1,0.3,3.8,1.5,2.2c3.1-4,5.7-8.5,8.5-12.8C65.3,210.8,64.2,208.1,63.1,209.7 M77.9,222.8
	c-0.9,2.8-1.6,5.6-2.2,8.4c-0.2,0.7-0.3,2,0.6,2.4s1.3-0.4,1.6-1.2c0.7-2.8,1.5-5.7,2-8.6C79.9,222.7,78.5,221,77.9,222.8
	 M265.5,238c1.5,2.7,3,5.4,4.6,7.9c0.3,0.4,0.8,0.6,1.2,0.3c0.1-0.1,0.3-0.2,0.3-0.4c0.4-0.8,0.4-1.7-0.1-2.4
	c-1.5-2.7-3.1-5.2-4.7-7.8c-0.2-0.4-0.7-0.5-1.1-0.3c-0.1,0.1-0.3,0.2-0.3,0.3C265.1,236.4,265.1,237.3,265.5,238 M280.9,233.4
	c0.9,0.7,1.8,1.3,2.8,1.9c0.9,0.6,1.8,1.2,2.8,1.6c1.5,0.5,1.5-2.3,0.7-3c-1.7-1.3-3.6-2.4-5.6-3.2
	C280.2,230.2,280.1,232.8,280.9,233.4 M293.4,218c1.9,1.7,4.1,3.1,6.2,4.7c1.8,1.5,3.8,2.8,5.8,4c1.4,0.8,1.5-2.3,0.7-3
	c-2-1.6-4-3.2-6.1-4.6c-1.9-1.3-3.8-2.8-5.8-4C292.9,214.4,292.7,217.3,293.4,218"/>
<g>
	<path class="st1" d="M116.5,273.3c-0.5-0.5-1.2-0.9-2-1c0.4-0.1,0.7-0.3,1-0.5s0.6-0.4,0.8-0.6c0.2-0.3,0.3-0.5,0.4-0.8
		s0.2-0.6,0.2-0.9c0-0.5-0.1-0.9-0.3-1.3c-0.2-0.4-0.4-0.7-0.8-1s-0.8-0.5-1.3-0.6c-0.6-0.1-1.3-0.2-1.9-0.2h-3.9v12.2l0,0v0.1h4.3
		c0.6,0,1.2-0.1,1.8-0.3c0.5-0.1,0.9-0.4,1.3-0.7c0.4-0.3,0.6-0.7,0.8-1.1c0.2-0.5,0.2-0.9,0.3-1.4
		C117.2,274.5,117,273.8,116.5,273.3z M110.4,267.6h2.2c0.7-0.1,1.4,0.1,2,0.5c0.5,0.4,0.7,1,0.6,1.6c0,0.3-0.1,0.6-0.2,0.9
		c-0.1,0.2-0.3,0.5-0.5,0.6c-0.3,0.2-0.5,0.3-0.9,0.4s-0.8,0.2-1.2,0.2h-2.2v-4.2H110.4z M115.5,275.9c-0.1,0.3-0.3,0.5-0.5,0.7
		c-0.3,0.2-0.5,0.4-0.9,0.5s-0.8,0.2-1.2,0.2h-2.7V273h2.8c0.7-0.1,1.4,0.1,2,0.5c0.4,0.4,0.6,0.9,0.6,1.5
		C115.7,275.3,115.7,275.6,115.5,275.9z"/>
	<polygon class="st1" points="121.1,269.9 121.1,278.5 119.6,278.5 119.6,269.9 	"/>
	<path class="st1" d="M121.4,267.2c0,0.3-0.1,0.5-0.3,0.7c-0.1,0.1-0.2,0.2-0.3,0.2c-0.1,0.1-0.3,0.1-0.4,0.1s-0.3,0-0.4-0.1
		s-0.2-0.1-0.3-0.2c-0.1-0.1-0.2-0.2-0.2-0.3c-0.1-0.1-0.1-0.3-0.1-0.4s0-0.3,0.1-0.4c0-0.1,0.2-0.3,0.2-0.4
		c0.1-0.1,0.2-0.2,0.3-0.2c0.1-0.1,0.3-0.1,0.4-0.1s0.3,0,0.4,0.1s0.2,0.1,0.3,0.2c0.1,0.1,0.2,0.2,0.2,0.4
		C121.4,266.9,121.5,267,121.4,267.2z"/>
	<polygon class="st1" points="125.4,266 125.4,278.5 124,278.5 124,266 	"/>
	<polygon class="st1" points="129.8,269.9 129.8,278.5 128.3,278.5 128.3,269.9 	"/>
	<path class="st1" d="M130.1,267.2c0,0.1,0,0.3-0.1,0.4s-0.1,0.2-0.3,0.3c-0.1,0.1-0.2,0.2-0.3,0.2c-0.1,0.1-0.3,0.1-0.4,0.1
		c-0.1,0-0.3,0-0.4-0.1c-0.1-0.1-0.2-0.1-0.3-0.2s-0.2-0.2-0.2-0.3c-0.1-0.1-0.1-0.3-0.1-0.4s0-0.3,0.1-0.4s0.1-0.3,0.2-0.4
		c0.1-0.1,0.2-0.2,0.3-0.2c0.1-0.1,0.3-0.1,0.4-0.1c0.1,0,0.3,0,0.4,0.1c0.3,0.1,0.5,0.3,0.6,0.6C130.1,266.9,130.1,267,130.1,267.2
		L130.1,267.2z"/>
	<path class="st1" d="M132.5,278.5v-8.6h0.9c0.2,0,0.4,0.1,0.4,0.3l0.1,1c0.4-0.4,0.8-0.7,1.3-1s1-0.4,1.6-0.4
		c0.4,0,0.8,0.1,1.2,0.2c0.3,0.2,0.6,0.4,0.9,0.6c0.3,0.3,0.4,0.7,0.5,1.1s0.2,0.9,0.2,1.3v5.5H138V273c0-0.6-0.1-1.1-0.4-1.5
		c-0.4-0.4-0.9-0.6-1.4-0.5c-0.4,0-0.9,0.1-1.3,0.3c-0.4,0.2-0.8,0.5-1.1,0.9v6.3L132.5,278.5z"/>
	<path class="st1" d="M146.8,270.2c-0.3-0.2-0.6-0.3-0.9-0.4c-0.4-0.1-0.7-0.1-1.1-0.1h0.1c-0.4,0-0.9,0.1-1.3,0.2
		c-0.4,0.1-0.8,0.3-1.1,0.5c-1,0.9-1.2,2.3-0.5,3.4c0.2,0.4,0.6,0.8,1,1c-0.3,0.2-0.6,0.4-0.8,0.7c-0.1,0.1-0.2,0.3-0.2,0.4
		c-0.1,0.1-0.1,0.3-0.1,0.4c0,0.3,0.1,0.5,0.2,0.8c0.2,0.2,0.4,0.4,0.6,0.5c-0.4,0.1-0.8,0.4-1.1,0.7c-0.3,0.3-0.4,0.7-0.4,1.1
		c0,0.3,0.1,0.6,0.2,0.9c0.2,0.3,0.4,0.6,0.7,0.7c0.4,0.3,0.7,0.4,1.2,0.5s1.1,0.2,1.7,0.2c0.6,0,1.2-0.1,1.7-0.3
		c0.5-0.1,0.9-0.3,1.3-0.6c0.3-0.3,0.6-0.6,0.8-1c0.2-0.3,0.3-0.7,0.3-1.1s-0.1-0.7-0.3-1c-0.2-0.2-0.4-0.5-0.6-0.6
		c-0.3-0.2-0.6-0.3-0.9-0.3c-0.4-0.1-0.7-0.1-1.1-0.1H145c-0.3,0-0.7,0-1-0.1c-0.2,0-0.4-0.1-0.6-0.2l-0.1-0.1
		c-0.2-0.2-0.2-0.6,0-0.8c0.1-0.2,0.3-0.3,0.4-0.4c0.8,0.2,1.7,0.2,2.5-0.1c0.4-0.1,0.7-0.3,1-0.6c0.3-0.3,0.5-0.6,0.7-0.9
		c0.3-0.8,0.3-1.6,0-2.4l1-0.1c0.3,0,0.4-0.2,0.4-0.4V270h-2.5V270.2z M143.6,277.8c0.3,0.1,0.6,0.1,0.9,0.1h0.9c0.3,0,0.6,0,0.9,0
		c0.2,0,0.5,0.1,0.7,0.2c0.2,0,0.4,0.2,0.5,0.3c0.1,0.2,0.2,0.3,0.2,0.5l0,0c0,0.2,0,0.4-0.1,0.6s-0.3,0.4-0.5,0.5
		c-0.2,0.2-0.5,0.3-0.8,0.3c-0.4,0.1-0.7,0.1-1.1,0.1c-0.4,0-0.7,0-1.1-0.1c-0.3,0-0.6-0.1-0.8-0.3c-0.2-0.1-0.4-0.2-0.5-0.4
		c-0.1-0.2-0.2-0.3-0.2-0.5c0-0.3,0.1-0.6,0.3-0.8C143,278.1,143.3,277.9,143.6,277.8z M146.6,273.3c-0.1,0.2-0.2,0.4-0.4,0.5
		c-0.2,0.2-0.4,0.3-0.6,0.4c-0.3,0.1-0.5,0.1-0.8,0.1l0,0l0,0l0,0c-0.3,0-0.5,0-0.8-0.1c-0.2-0.1-0.4-0.2-0.6-0.4
		c-0.2-0.2-0.3-0.3-0.4-0.5c-0.1-0.2-0.1-0.5-0.1-0.7c0-0.5,0.2-0.9,0.5-1.3c0.8-0.6,2-0.6,2.8,0c0.3,0.4,0.5,0.8,0.5,1.3
		C146.7,272.9,146.7,273.1,146.6,273.3z"/>
	<path class="st1" d="M152,269.9v5.5c0,0.5,0.1,1.1,0.5,1.5s0.9,0.6,1.4,0.5c0.4,0,0.9-0.1,1.3-0.3c0.4-0.2,0.8-0.5,1.1-0.9v-6.4
		h1.5v8.6h-0.9c-0.2,0-0.4-0.1-0.4-0.3l-0.1-1c-0.4,0.4-0.8,0.7-1.3,1s-1,0.4-1.6,0.4c-0.4,0-0.9-0.1-1.3-0.2
		c-0.3-0.2-0.6-0.4-0.9-0.6c-0.2-0.3-0.4-0.6-0.5-1s-0.2-0.9-0.2-1.3v-5.5L152,269.9L152,269.9z"/>
	<g>
		<path class="st1" d="M166.2,271.8c-0.1-0.4-0.3-0.7-0.6-1s-0.6-0.5-1-0.6c-0.4-0.2-0.8-0.3-1.3-0.3c-0.6,0-1.2,0.1-1.8,0.3
			c-0.6,0.2-1.1,0.6-1.5,1l0.3,0.5c0,0.1,0.1,0.1,0.2,0.2s0.2,0.1,0.3,0.1s0.3-0.1,0.4-0.2l0.5-0.3l0.6-0.3c0.3-0.1,0.7-0.2,1-0.2
			c0.5,0,1,0.2,1.3,0.5c0.3,0.5,0.5,1,0.4,1.5v0.7c-0.8,0-1.6,0-2.5,0.2c-0.6,0.1-1.1,0.3-1.7,0.6c-0.4,0.2-0.7,0.5-0.9,0.9
			c-0.3,0.6-0.3,1.4,0,2c0.1,0.3,0.3,0.5,0.5,0.7s0.5,0.3,0.8,0.4s0.7,0.2,1,0.2s0.6,0,0.9-0.1c0.3-0.1,0.5-0.1,0.7-0.3
			c0.3-0.1,0.5-0.3,0.7-0.4c0.2-0.2,0.4-0.3,0.6-0.5l0.2,0.8c0,0.1,0.1,0.2,0.2,0.3c0.1,0,0.3,0.1,0.4,0.1h0.6v-5.4
			C166.4,272.7,166.3,272.2,166.2,271.8z M165.1,276.4c-0.2,0.2-0.3,0.3-0.5,0.5c-0.2,0.1-0.4,0.3-0.6,0.4c-0.2,0.1-0.4,0.2-0.6,0.2
			c-0.2,0.1-0.5,0.1-0.7,0.1l0,0c-0.2,0-0.3,0-0.5-0.1c-0.2,0-0.3-0.1-0.4-0.2c-0.1-0.1-0.3-0.3-0.3-0.4c-0.1-0.2-0.1-0.4-0.1-0.6
			s0.1-0.5,0.2-0.6c0.2-0.2,0.4-0.4,0.7-0.5c0.4-0.2,0.8-0.3,1.2-0.4c0.6-0.1,1.2-0.1,1.8-0.1v1.7H165.1z"/>
		<polygon class="st1" points="166.5,278.5 166.4,278.5 166.4,278.6 		"/>
	</g>
	<polygon class="st1" points="170.5,266 170.5,278.5 169,278.5 169,266 	"/>
	<path class="st1" d="M182.9,274.6l0.2,0.4c0-0.1,0.1-0.3,0.2-0.4c0.1-0.1,0.1-0.3,0.2-0.4l4.1-7.5c0-0.1,0.1-0.2,0.2-0.3
		c0.1,0,0.2,0,0.3,0h1.2v12.2h-1.4v-9.7l-4.2,7.6c-0.1,0.2-0.3,0.4-0.6,0.4h-0.3c-0.2,0-0.5-0.2-0.6-0.4l-4.3-7.7
		c0,0.2,0.1,0.3,0.1,0.4v9.3h-1.4v-12.2h1.2c0.1,0,0.2,0,0.3,0.1s0.2,0.2,0.2,0.3l4.2,7.5C182.7,274.2,182.8,274.4,182.9,274.6"/>
	<path class="st1" d="M198.4,273.1c0-0.4-0.1-0.9-0.2-1.3c-0.1-0.4-0.3-0.7-0.6-1s-0.6-0.5-1-0.6c-0.4-0.2-0.8-0.3-1.3-0.3
		c-1.3,0-2.5,0.4-3.4,1.3l0.3,0.5c0,0.1,0.2,0.1,0.2,0.2s0.2,0.1,0.3,0.1s0.3-0.1,0.4-0.2l0.5-0.3l0.6-0.3c0.3-0.1,0.7-0.2,1-0.2
		c0.5,0,1,0.2,1.3,0.5c0.3,0.5,0.5,1,0.4,1.5v0.7c-0.8,0-1.6,0-2.4,0.2c-0.6,0.1-1.1,0.3-1.7,0.6c-0.4,0.2-0.7,0.5-0.9,0.9
		c-0.2,0.3-0.3,0.6-0.3,1c0,0.3,0.1,0.7,0.2,1c0.1,0.3,0.3,0.5,0.5,0.7s0.5,0.3,0.7,0.4c0.3,0.1,0.7,0.2,1,0.2s0.6,0,0.9-0.1
		c0.3-0.1,0.5-0.1,0.8-0.3c0.2-0.1,0.5-0.3,0.7-0.4c0.2-0.2,0.4-0.3,0.6-0.5l0.2,0.8c0,0.1,0.1,0.2,0.2,0.3c0.1,0,0.2,0.1,0.4,0.1
		h0.7L198.4,273.1z M197.1,276.4c-0.2,0.2-0.3,0.3-0.5,0.5c-0.2,0.1-0.4,0.3-0.6,0.4c-0.2,0.1-0.4,0.2-0.6,0.2
		c-0.2,0.1-0.5,0.1-0.7,0.1l0,0l0,0l0,0c-0.2,0-0.4,0-0.5-0.1c-0.2,0-0.3-0.1-0.4-0.2c-0.1-0.1-0.3-0.3-0.3-0.4
		c-0.1-0.2-0.1-0.4-0.1-0.6s0.1-0.5,0.2-0.6c0.2-0.2,0.4-0.4,0.7-0.5c0.4-0.2,0.8-0.3,1.2-0.4c0.6-0.1,1.2-0.1,1.8-0.1v1.7H197.1z"
		/>
	<path class="st1" d="M203.4,278.6c-0.6,0.1-1.2-0.2-1.6-0.6c-0.4-0.5-0.6-1.1-0.5-1.6v-5.3h-1.1c-0.1,0-0.2,0-0.2-0.1
		c-0.1-0.1-0.1-0.2-0.1-0.3v-0.6l1.4-0.2l0.3-2.7c0-0.1,0-0.2,0.1-0.2c0.1-0.1,0.2-0.1,0.3-0.1h0.7v3h2.4v1.1h-2.4v5.2
		c-0.1,0.3,0,0.6,0.3,0.8c0.2,0.2,0.4,0.3,0.7,0.3c0.1,0,0.3,0,0.4-0.1l0.3-0.2c0,0,0.2-0.1,0.2-0.2c0,0,0.1-0.1,0.2,0
		c0.1,0,0.2,0,0.2,0.2l0.4,0.7c-0.3,0.3-0.6,0.5-1,0.6C204.1,278.6,203.7,278.6,203.4,278.6"/>
	<path class="st1" d="M213.8,271.9c-0.2-0.5-0.4-0.9-0.7-1.2c-0.3-0.3-0.7-0.6-1.1-0.8c-0.5-0.2-0.9-0.3-1.4-0.3l0,0
		c-0.6,0-1.3,0.2-1.8,0.5c-0.5,0.2-0.9,0.5-1.3,0.9c-0.4,0.4-0.6,0.8-0.8,1.3c-0.2,0.6-0.3,1.1-0.3,1.7c0,0.7,0.1,1.4,0.3,2
		c0.2,0.5,0.5,1,0.9,1.4s0.8,0.7,1.3,0.9c0.5,0.2,1.1,0.3,1.7,0.3c0.4,0,0.7,0,1-0.1s0.6-0.2,0.9-0.3c0.3-0.1,0.6-0.3,0.9-0.4
		c0.2-0.2,0.5-0.4,0.7-0.6l-0.4-0.5c0-0.1-0.2-0.2-0.3-0.2s-0.2,0-0.3,0.1c-0.2,0.1-0.3,0.2-0.5,0.3c-0.2,0.1-0.4,0.2-0.7,0.3
		c-0.3,0.1-0.7,0.1-1,0.1c-0.4,0-0.8-0.1-1.1-0.2s-0.6-0.3-0.9-0.6c-0.2-0.3-0.4-0.6-0.5-1c-0.1-0.5-0.2-0.9-0.2-1.4h5.7
		c0.1,0,0.3,0,0.3-0.1c0.1-0.2,0.1-0.3,0.1-0.5C214.1,273,214,272.5,213.8,271.9z M208,273.2c0.1-0.7,0.4-1.3,0.8-1.8
		c0.5-0.4,1.1-0.7,1.7-0.6l0,0c0.3,0,0.6,0.1,0.9,0.2c0.5,0.2,1,0.7,1.1,1.2c0.1,0.3,0.2,0.7,0.2,1L208,273.2L208,273.2z"/>
	<path class="st1" d="M216,278.4v-8.5h0.9c0.1,0,0.3,0,0.3,0.1c0.1,0.1,0.1,0.2,0.1,0.3l0.1,1.3c0.3-0.5,0.7-1,1.1-1.4
		c0.8-0.6,1.8-0.7,2.7-0.2l-0.2,1.1c0,0.1-0.1,0.2-0.3,0.2c-0.1,0-0.3,0-0.4-0.1c-0.2-0.1-0.5-0.1-0.7-0.1c-0.5,0-1,0.2-1.3,0.5
		c-0.4,0.4-0.7,0.8-0.9,1.3v5.5L216,278.4L216,278.4L216,278.4z"/>
	<polygon class="st1" points="224.5,269.8 224.5,278.4 223,278.4 223,269.8 224.6,269.8 	"/>
	<path class="st1" d="M224.9,267.1c0,0.1,0,0.3-0.1,0.4s-0.2,0.2-0.3,0.3c-0.1,0.1-0.2,0.2-0.3,0.2c-0.1,0.1-0.3,0.1-0.4,0.1
		c-0.2,0-0.3,0-0.4-0.1c-0.1-0.1-0.2-0.1-0.3-0.2s-0.2-0.2-0.2-0.3c-0.1-0.1-0.1-0.3-0.1-0.4s0-0.3,0.1-0.4c0-0.1,0.2-0.3,0.2-0.4
		c0.1-0.1,0.2-0.2,0.3-0.2c0.1-0.1,0.3-0.1,0.4-0.1c0.1,0,0.3,0,0.4,0.1c0.1,0.1,0.2,0.1,0.3,0.2s0.2,0.2,0.3,0.4
		C224.8,266.8,224.9,267,224.9,267.1L224.9,267.1z"/>
	<g>
		<polygon class="st1" points="233.5,278.5 233.4,278.5 233.4,278.5 		"/>
		<path class="st1" d="M233.2,271.7c-0.1-0.4-0.3-0.7-0.6-1s-0.6-0.5-1-0.6c-0.4-0.2-0.8-0.3-1.3-0.3c-1.3,0-2.5,0.4-3.4,1.3
			l0.3,0.5c0,0.1,0.1,0.1,0.2,0.2c0.1,0.1,0.2,0.1,0.3,0.1c0.2,0,0.3-0.1,0.4-0.2l0.5-0.3l0.6-0.3c0.3-0.1,0.7-0.2,1-0.2
			c0.5,0,1,0.2,1.3,0.5c0.3,0.5,0.5,1,0.4,1.5v0.7c-0.8,0-1.7,0-2.5,0.2c-0.6,0.1-1.1,0.3-1.6,0.6c-0.4,0.2-0.7,0.5-0.9,0.8
			c-0.3,0.6-0.3,1.4,0,2c0.1,0.3,0.3,0.5,0.5,0.7s0.5,0.3,0.8,0.4s0.7,0.2,1,0.2s0.6,0,0.9-0.1c0.3-0.1,0.5-0.1,0.8-0.3
			c0.2-0.1,0.5-0.3,0.7-0.4c0.2-0.2,0.4-0.3,0.6-0.5l0.2,0.8c0,0.1,0.1,0.2,0.2,0.3c0.1,0,0.2,0.1,0.4,0.1h0.6V273
			C233.5,272.6,233.4,272.2,233.2,271.7z M232,276.3c-0.2,0.2-0.3,0.3-0.5,0.5s-0.3,0.3-0.5,0.4s-0.4,0.2-0.6,0.2
			c-0.2,0.1-0.5,0.1-0.8,0.1c-0.2,0-0.4,0-0.5-0.1c-0.2,0-0.3-0.1-0.4-0.2c-0.2-0.1-0.3-0.3-0.3-0.4c-0.1-0.2-0.1-0.4-0.1-0.6
			s0.1-0.5,0.2-0.6c0.2-0.2,0.4-0.4,0.6-0.5c0.4-0.2,0.8-0.3,1.2-0.4c0.6-0.1,1.2-0.1,1.8-0.1L232,276.3L232,276.3z"/>
	</g>
	<polygon class="st1" points="237.5,265.9 237.5,278.5 236,278.5 236,266 	"/>
	<path class="st1" d="M245.1,271.2c0,0.1-0.2,0.2-0.3,0.2s-0.2,0-0.3-0.1c-0.1,0-0.3-0.1-0.4-0.2c-0.2-0.1-0.4-0.2-0.5-0.2
		c-0.2-0.1-0.5-0.1-0.7-0.1s-0.5,0-0.7,0.1c-0.2,0-0.4,0.1-0.5,0.3c-0.1,0.1-0.3,0.2-0.3,0.4c-0.1,0.2-0.1,0.3-0.1,0.5
		s0.1,0.4,0.2,0.5c0.2,0.2,0.3,0.3,0.5,0.4s0.5,0.2,0.8,0.3c0.3,0.1,0.5,0.2,0.8,0.3l0.8,0.3c0.3,0.1,0.5,0.3,0.8,0.4
		c0.2,0.2,0.4,0.4,0.5,0.6c0.1,0.3,0.2,0.6,0.2,0.9c0,0.4-0.1,0.8-0.2,1.1c-0.2,0.3-0.4,0.7-0.7,0.9c-0.3,0.3-0.6,0.5-1,0.6
		c-0.4,0.2-0.9,0.2-1.4,0.2c-0.6,0-1.1-0.1-1.6-0.3c-0.5-0.2-0.9-0.4-1.2-0.7l0.4-0.6l0.2-0.2c0.1,0,0.2,0,0.3,0s0.2,0,0.3,0.1
		l0.4,0.3c0.2,0.1,0.4,0.2,0.6,0.3c0.3,0.1,0.6,0.1,0.9,0.1c0.3,0,0.5,0,0.8-0.1c0.2-0.1,0.4-0.2,0.5-0.4c0.2-0.1,0.3-0.3,0.3-0.4
		c0.1-0.2,0.1-0.3,0.1-0.5s-0.1-0.4-0.2-0.6c-0.2-0.2-0.3-0.3-0.5-0.4s-0.5-0.2-0.7-0.3l-0.8-0.3l-0.8-0.3c-0.3-0.1-0.5-0.3-0.7-0.4
		c-0.2-0.2-0.4-0.4-0.5-0.6c-0.1-0.3-0.2-0.6-0.2-1c0-0.3,0.1-0.7,0.2-1c0.1-0.3,0.3-0.6,0.6-0.8c0.3-0.2,0.6-0.4,1-0.5
		c0.4-0.2,0.9-0.2,1.3-0.2c0.5,0,1,0.1,1.5,0.3c0.4,0.2,0.8,0.4,1.2,0.8L245.1,271.2L245.1,271.2z"/>
	<path class="st0" d="M223.5,227.5c-0.4-1-0.7-2.1-0.9-3.2h0.1c-0.2-0.8-0.5-1.5-0.7-2.3c-0.5-1.2-1.2-2.3-2-3.4
		c-0.8-0.8-1.5-1.7-2.2-2.6c-1-1.2-2.1-2.2-3.2-3.2c-3.8-3.2-8.2-5.7-12.9-7.2c-2.2-0.7-4.6-1.1-6.9-1.1c-1.8,0-3.5,0.3-5.2,0.8
		c-1.6,0.5-3.2,1.1-4.7,1.9c-0.2-2.2-0.6-4.3-1.3-6.3c-0.6-1.9-1.6-3.7-2.8-5.3c-1.5-1.9-3.4-3.6-5.5-4.9c-1.7-1-3.5-1.8-5.4-2.4
		c-1.7-0.5-3.4-0.8-5.2-0.8c-2.3,0-4.7,0.4-6.9,1.1c-4.8,1.5-9.2,3.9-12.9,7.2c-1.2,0.9-2.4,2-3.4,3.2c-0.7,0.9-1.5,1.7-2.2,2.6
		c-0.9,1-1.5,2.1-2,3.4c-0.3,0.8-0.5,1.5-0.7,2.3c-1,3.4-1,7-0.2,10.4c0.1,0.5,0.3,0.9,0.5,1.4c0.3,0.6,0.6,1.2,0.9,1.8
		c0.8,1.7,2,3.2,3.6,4.2c1,0.8,2.1,1.3,3.2,1.5c0.3,0.1,0.5,0.1,0.8,0.3c0.6,0.3,1.3,0.4,2,0.3c0.3,0,0.6,0,1,0
		c-1,3.5-1.4,7.2-1.2,10.8c0.6,0.5,1.3,1,2,1.4c0.6,0.5,1.5,0.5,2.2,0c1.5-0.8,2.8-1.8,4-3c0.2-0.2,0.5-0.5,0.8-0.7
		c1.4-1.2,2.8-2.3,4.2-3.6c0.9-0.8,1.8-1.6,2.8-2.3l3.4-2.4c0.3-0.2,0.6-0.3,0.9-0.2c0.4,0,0.7,0,1.1,0c0.5-0.1,1-0.2,1.5-0.3
		c1.2-0.3,2.5-0.7,3.6-1.2c0.4-0.2,0.7-0.4,1-0.6v1.5c0,1.3,0.2,2.5,0.5,3.8c0.1,0.3,0.2,0.7,0.4,1c0.2,0.4,0.4,0.9,0.5,1.3
		c0.3,0.8,0.7,1.5,1.1,2.2c0.6,1,1.3,2,2.1,2.9c0.3,0.4,0.7,0.8,1.1,1.1c1,0.8,2,1.6,3.1,2.2c0.9,0.4,1.7,1,2.5,1.4
		c1.2,0.5,2.4,0.9,3.6,1.2c0.5,0.1,1,0.3,1.5,0.3c0.4,0.1,0.7,0.1,1.1,0c0.3-0.1,0.7,0,0.9,0.2l3.3,2.4c1,0.7,1.9,1.5,2.7,2.3
		c1.3,1.3,2.8,2.4,4.2,3.6c0.3,0.2,0.5,0.5,0.8,0.7c1.2,1.2,2.5,2.2,4,3c0.7,0.4,1.5,0.4,2.2,0s1.3-1,2-1.4
		c0.2-3.6-0.2-7.2-1.2-10.7c0.3,0,0.7,0,1,0c0.7,0,1.4-0.1,2-0.3c0.3-0.1,0.5-0.2,0.8-0.3c1.2-0.3,2.3-0.8,3.2-1.5
		c1.6-1.1,2.8-2.5,3.6-4.2c0.3-0.6,0.6-1.2,0.9-1.8c0.2-0.4,0.4-0.9,0.5-1.4C223.6,232.3,223.8,229.9,223.5,227.5z M176.3,218.9
		c-0.4,0.5-0.8,0.9-1.2,1.3c-0.6,0.5-1.2,0.9-1.8,1.3h-0.1c-0.8,0.6-1.7,1.1-2.6,1.6c-0.4,0.2-0.9,0.4-1.3,0.6
		c-0.3,0.2-0.6,0.2-0.9,0.1c-0.7-0.2-1.4-0.1-2,0.3c-0.2,0.1-0.4,0.2-0.6,0.2c-0.6,0.1-1.2,0.3-1.7,0.8c-2,1.5-4,3-6,4.5
		c-0.5,0.4-0.9,0.8-1.3,1.2l-4.6,4.1c-0.1,0.1-0.3,0.2-0.4,0.3c-0.2-0.3-0.2-0.7-0.1-1.1c0.2-1.4,0.3-2.9,0.5-4.3
		c0.1-0.4,0.2-0.8,0.3-1.1c0.2-0.6,0.2-1.2,0.1-1.8c-0.1-0.5-0.4-1-0.9-1.1c-0.5-0.2-1-0.3-1.5-0.4c-0.7-0.1-1.4-0.3-2-0.6
		c-0.7-0.3-1.5-0.7-2.2-0.9c-0.9-0.4-1.7-0.9-2.3-1.6c-0.5-0.5-1-1-1.3-1.7c-0.3-0.5-0.6-1-0.9-1.5c-0.3-0.5-0.4-1-0.7-1.4
		c-0.4-0.7-0.7-1.5-0.8-2.3c-0.2-1.2-0.3-2.4-0.2-3.6c0-2.3,0.5-4.7,1.3-6.9c0.6-1.3,1.4-2.6,2.4-3.6c0.4-0.4,0.7-0.8,1.1-1.2
		c1.1-1.2,2.4-2.4,3.7-3.4c2.2-1.8,4.6-3.3,7.2-4.6c1.9-0.9,3.9-1.5,6-1.9c0.5-0.1,0.9-0.2,1.4-0.2c2.1-0.3,4.2-0.1,6.2,0.5
		c1,0.3,2,0.8,3,1.1c0.9,0.4,1.7,0.9,2.4,1.6c2.1,1.7,3.7,4.1,4.4,6.7c0.4,1.4,0.8,2.9,1.2,4.4c0.3,1.6,0.4,3.2,0.3,4.8
		c0,0.5-0.1,1-0.2,1.5c-0.2,0.9-0.4,1.8-0.6,2.6l-0.3,0.8C178.4,215.8,177.4,217.4,176.3,218.9z M219.1,232.3L219.1,232.3
		c-0.1,0.8-0.4,1.6-0.8,2.3c-0.3,0.5-0.4,1-0.7,1.4c-0.3,0.5-0.6,1-0.9,1.5c-0.4,0.6-0.8,1.1-1.3,1.7c-0.7,0.7-1.5,1.2-2.4,1.6
		c-0.8,0.2-1.5,0.6-2.3,0.9c-0.6,0.3-1.3,0.5-2,0.6c-0.5,0.1-1,0.2-1.5,0.4s-0.9,0.6-0.9,1.1c-0.1,0.6-0.1,1.2,0.1,1.8
		c0.2,0.4,0.3,0.7,0.3,1.1c0.2,1.4,0.4,2.9,0.5,4.3c0.1,0.4,0.1,0.8-0.1,1.1l-0.4-0.3c-1.5-1.4-3.1-2.7-4.6-4.1
		c-0.4-0.4-0.9-0.8-1.3-1.2c-2-1.5-4-3-6-4.5c-0.5-0.4-1.1-0.7-1.7-0.7c-0.2,0-0.4-0.1-0.6-0.2c-0.6-0.3-1.3-0.4-2-0.3
		c-0.3,0.1-0.6,0-0.9-0.1c-0.5-0.2-0.9-0.4-1.3-0.6c-0.9-0.5-1.8-1-2.6-1.6c-1.1-0.7-2.1-1.6-2.9-2.7c-1.1-1.5-2.1-3.1-2.8-4.7
		l-0.3-0.8c-0.5-1.3-0.8-2.7-0.8-4.2c0-1.4,0-2.7,0.2-4c0.4-0.3,0.7-0.6,1-1c0.8-0.9,1.5-1.9,2.1-2.9c0.5-0.7,0.9-1.5,1.2-2.2
		c0.2-0.4,0.4-0.8,0.5-1.3c0.2-0.3,0.3-0.7,0.4-1c0.3-1.1,0.4-2.2,0.5-3.4c0,0,0,0,0.1-0.1c0.7-0.6,1.5-1.1,2.4-1.5
		c1-0.5,2-0.8,3-1.1c2-0.7,4.1-0.8,6.2-0.5c0.5,0.1,0.9,0.2,1.4,0.2c2.1,0.3,4.1,0.9,6,1.9c2.6,1.2,5,2.7,7.2,4.6
		c1.3,1,2.6,2.1,3.7,3.4c0.3,0.4,0.7,0.8,1.1,1.2c1,1,1.8,2.3,2.4,3.6c0.8,2.2,1.2,4.5,1.3,6.9C219.3,230,219.2,231.2,219.1,232.3z"
		/>
	<path class="st0" d="M172.1,201.7c-1,0-2,0.2-2.9,0.6c-1,0.4-1.5,0.8-1.5,1.2c0.1,0.4,0.3,0.8,0.6,1.1c-0.1,2.7-0.7,5.3-1.5,7.9
		c-0.2,0.6-0.4,1.3-0.5,1.9c0.1,0.5,0.3,0.9,0.6,1.2c0.4,0.5,0.8,0.8,1.1,0.8c0.2,0,0.3-0.2,0.5-0.6c0.5-1.3,0.9-2.6,1.2-3.9
		c2-0.3,3.8-1.2,5.3-2.4c1.3-0.9,2.1-2.4,2.1-3.9c0.1-1.1-0.4-2.1-1.3-2.8C174.7,202,173.4,201.6,172.1,201.7z M173.3,207.7
		L173.3,207.7c-0.9,0.8-1.8,1.3-2.9,1.7c0.3-1,0.5-2.1,0.6-3.2c0-0.4-0.1-0.9-0.4-1.2c0.6-0.4,1.4-0.7,2.1-0.7
		c0.4,0,0.9,0.1,1.2,0.4c0.3,0.2,0.5,0.6,0.4,1C174.3,206.5,173.9,207.2,173.3,207.7z"/>
	<path class="st0" d="M154.8,204.5c0.6-0.1,1-0.4,1-0.9c0-0.6-1.4-1-4.2-1c-1.2,0-2.4,0-3.5,0.2c-0.6,0.1-1.1,0.3-1.2,0.7
		c0,0.1,0,0.3,0,0.4v0.2c-0.2,1.9-0.5,3.7-1.1,5.5c-0.4,1.5-0.8,3-1,4.5c0,0.6,0.3,1.2,0.8,1.6c0.4,0.4,1,0.7,1.6,0.7
		c1,0,2.1-0.1,3.1-0.4c0.9-0.2,1.8-0.6,2.6-1.1c0.6-0.3,0.9-0.8,1-1.4c0-0.4-0.1-0.5-0.4-0.5c-0.3,0-0.6,0.1-0.9,0.2
		c-1.5,0.4-3,0.6-4.6,0.6c-0.2,0-0.3-0.1-0.3-0.2v-0.1c0.1-1,0.4-2,0.7-3c1.2-0.1,2.3-0.3,3.5-0.6c1.1-0.3,1.6-0.8,1.6-1.4
		c0-0.1-0.1-0.3-0.2-0.3c-0.1-0.1-0.3-0.2-0.5-0.1c-0.2,0-0.7,0-1.5,0.1s-1.5,0.1-2.2,0.1H149c0.3-1,0.4-2,0.5-3.1
		c1.1-0.3,2.3-0.5,3.4-0.6v0.1C153.5,204.7,154.1,204.6,154.8,204.5z"/>
	<path class="st0" d="M164.1,202.2L164.1,202.2c-1,0.1-2,0.4-2.9,0.8c-1,0.4-1.9,1-2.7,1.8c-0.3,0.3-0.4,0.6-0.5,1s-0.2,0.9-0.2,1.3
		c0,0.4,0.4,1,1.1,1.8l2.2,2.2c0.7,0.7,1.1,1.2,1.1,1.5s-0.3,0.7-1,1.1c-0.5,0.4-1.2,0.6-1.8,0.6c-0.5,0-1-0.2-1.4-0.5
		s-0.8-0.6-1.1-0.9c-0.3-0.3-0.6-0.4-1-0.5c-0.4,0-0.6,0.4-0.6,1.1c0.1,0.8,0.5,1.6,1.2,2.1c0.9,0.7,2.1,1,3.2,1
		c1.3,0,2.6-0.4,3.6-1.2c1-0.6,1.6-1.7,1.6-2.9c0-0.7-0.3-1.4-0.7-2s-0.9-1.2-1.5-1.7c-0.5-0.5-1.1-0.8-1.5-1.3
		c-0.4-0.4-0.7-0.7-0.7-0.9c0-0.4,0.6-0.8,2-1.3c0.6-0.2,1.1-0.4,1.7-0.5l1.3-0.3c0.3-0.1,0.4-0.3,0.4-0.4c0-0.5-0.2-1-0.5-1.3
		C165.1,202.4,164.6,202.2,164.1,202.2z"/>
	<path class="st0" d="M212.3,226.3c-0.7,0-1.3,0.1-2,0.3c-0.6,0.2-0.9,0.4-0.9,0.6l0,0c0,0.3,0.2,0.6,0.5,0.7
		c0.3,0.3,0.7,0.4,1.1,0.4h1c-0.5,0.7-1.2,1.4-2,1.8c-0.7,0.5-1.4,0.7-2.2,0.8c-0.4,0-0.6-0.2-0.6-0.5c0-1.3,0.3-2.5,0.8-3.6
		c0.5-1.2,1.3-2.3,2.2-3.2c0.7-0.8,1.6-1.3,2.6-1.3c0.3-0.1,0.5-0.1,0.8,0h0.4c0.3,0,0.3-0.1,0.3-0.3c-0.1-0.6-0.3-1.2-0.6-1.7
		c-0.4-0.6-0.8-0.9-1.2-0.9c-1.4,0.1-2.6,0.8-3.6,1.8c-1.3,1.2-2.3,2.7-3.1,4.3c-0.8,1.4-1.2,3-1.2,4.6c0,0.9,0.5,1.7,1.2,2.1
		c0.6,0.6,1.5,0.9,2.3,1c0.8,0,1.5-0.3,2.2-0.7c0.8-0.5,1.4-1.1,2-1.9c-0.4,1.3-0.7,2.6-0.8,3.9c0,0.2,0.1,0.3,0.2,0.4
		c0.1,0.1,0.3,0.2,0.4,0.2c0.4,0,1-0.9,1.5-2.5c0.5-1.2,0.8-2.4,0.9-3.6c0-0.7-0.2-1.3-0.6-1.9C213.6,226.6,213,226.3,212.3,226.3z"
		/>
	<path class="st0" d="M193.7,220.7c0-0.6-1.4-0.9-4.1-0.9c-1.2,0-2.3,0.1-3.5,0.2c-0.6,0.1-1,0.3-1.2,0.7c-0.1,0.1-0.1,0.3-0.1,0.4
		v0.2c-0.2,1.8-0.5,3.6-1.1,5.4c-0.5,1.5-0.8,3-1,4.5c0,0.6,0.2,1.1,0.7,1.5c0.4,0.4,1,0.6,1.6,0.6c1,0,2-0.1,3-0.4
		c0.9-0.2,1.8-0.6,2.6-1.1c0.5-0.3,0.9-0.8,1-1.3c0-0.4-0.1-0.5-0.4-0.5c-0.3,0-0.6,0.1-0.9,0.2c-1.5,0.4-3,0.6-4.5,0.6h-0.1l0,0
		c-0.2,0-0.3-0.2-0.3-0.3c0.1-1,0.4-2,0.7-2.9c1.2-0.1,2.3-0.3,3.4-0.6c1.1-0.3,1.6-0.8,1.6-1.3c0-0.1-0.1-0.2-0.2-0.3
		c-0.1-0.1-0.3-0.1-0.4-0.1c-0.5,0-1,0-1.4,0.1c-0.7,0.1-1.5,0.1-2.2,0.1l0,0c0.3-1,0.5-2,0.5-3c1.1-0.3,2.2-0.5,3.3-0.6
		c0.6,0,1.2-0.2,1.9-0.3S193.7,221,193.7,220.7z"/>
	<path class="st0" d="M203.7,219.9c-0.3-0.3-0.8-0.5-1.2-0.6v0.1c-0.2,0-0.4,0.1-0.5,0.3c-0.1,0.3-0.2,1-0.3,2.2
		c-0.3,2.3-0.7,4.5-1.4,6.7c-0.4-0.8-0.9-2.3-1.5-4.3c-0.3-1.2-0.8-2.4-1.3-3.6c-0.3-0.3-0.6-0.6-0.9-0.9c-0.2-0.2-0.5-0.3-0.9-0.4
		c-0.3,0-0.4,0.3-0.4,0.7c-0.3,2-0.7,4.1-1.2,6.1c-0.5,1.8-0.8,3.5-1.1,5.3c0.1,0.5,0.3,0.9,0.6,1.2c0.2,0.3,0.6,0.6,1,0.7
		c0.2,0,0.4-0.4,0.6-1c0.1-0.3,0.2-0.7,0.3-1s0.2-0.8,0.3-1.3s0.2-1.1,0.3-1.4c0.1-0.4,0.2-1,0.4-1.7s0.3-1.2,0.4-1.6
		c0.6,1.3,1.2,3.1,1.9,5.2c0.3,0.9,0.5,1.5,0.6,1.8s0.4,0.6,0.6,0.7c0.2,0.2,0.5,0.3,0.7,0.3c0.5,0,1-0.9,1.6-2.7
		c0.6-1.9,1.1-3.8,1.4-5.7c0.3-1.4,0.5-2.8,0.6-4.2C204.4,220.6,204.1,220.3,203.7,219.9z"/>
</g>
</svg>
